<?xml version="1.0" encoding="utf-8"?>
<!-- Generator: Adobe Illustrator 24.3.0, SVG Export Plug-In . SVG Version: 6.00 Build 0)  -->
<svg version="1.1" id="Capa_1" xmlns="http://www.w3.org/2000/svg" xmlns:xlink="http://www.w3.org/1999/xlink" x="0px" y="0px"
	 viewBox="0 0 3334.4 1172.9" style="enable-background:new 0 0 3334.4 1172.9;" xml:space="preserve">
<style type="text/css">
	.st0{fill:#EFC5C5;}
</style>
<path class="st0" d="M1431.8,1053c-0.4-8,5.7-14.9,13.7-15.3c0.5,0,1.1,0,1.6,0h22c10.7,0,20.1,1.8,28.3,5.4
	c7.7,3.3,14.6,8.2,20.2,14.4c5.3,5.9,9.4,12.8,12.1,20.2c5.4,15,5.4,31.4,0,46.4c-2.7,7.5-6.8,14.3-12.1,20.2
	c-5.6,6.2-12.5,11.1-20.2,14.3c-8.1,3.6-17.6,5.4-28.3,5.4h-22c-8,0.4-14.9-5.7-15.3-13.7c0-0.5,0-1.1,0-1.6V1053z M1453.5,1132.4
	c-0.2,3.1,1,6.1,3.2,8.3c2.3,2.1,5.3,3.2,8.4,3.1h3.4c9.5,0,17.4-2.1,23.8-6.3c6.1-3.9,11-9.4,14.2-15.9c3.1-6.5,4.8-13.5,4.8-20.7
	c0.1-7.2-1.5-14.3-4.7-20.7c-3.3-6.5-8.2-12-14.4-15.9c-6.4-4.2-14.3-6.3-23.8-6.3h-3.3c-3.1-0.1-6.1,1-8.4,3.1
	c-2.2,2.2-3.3,5.2-3.2,8.3L1453.5,1132.4z"/>
<path class="st0" d="M1469.2,1165.5h-22c-8.8,0.4-16.3-6.3-16.8-15.2c0-0.5,0-1.1,0-1.6V1053c-0.4-8.8,6.3-16.3,15.2-16.8
	c0.5,0,1.1,0,1.6,0h22c10.9,0,20.6,1.9,28.8,5.5c7.9,3.4,14.9,8.4,20.7,14.7c5.4,6,9.6,13.1,12.4,20.7c5.5,15.3,5.5,32.1,0,47.4
	c-2.7,7.6-6.9,14.7-12.4,20.7c-5.8,6.3-12.9,11.3-20.7,14.7C1489.8,1163.7,1480,1165.5,1469.2,1165.5z M1447.2,1039.1
	c-7.2-0.4-13.5,5.1-13.9,12.3c0,0.5,0,1.1,0,1.6v95.7c0,4.2,1.2,7.5,3.8,10.1s5.9,3.8,10.1,3.8h22c10.5,0,19.8-1.8,27.7-5.3
	c7.5-3.2,14.2-8,19.7-14c5.2-5.8,9.2-12.5,11.8-19.8c5.3-14.7,5.3-30.8,0-45.4c-2.6-7.3-6.6-14-11.8-19.8c-5.5-6-12.2-10.8-19.7-14
	c-7.9-3.5-17.2-5.3-27.7-5.3L1447.2,1039.1z M1468.5,1145.3h-3.5c-3.5,0.1-6.9-1.1-9.4-3.5c-2.5-2.5-3.8-5.9-3.6-9.4v-63.2
	c-0.2-3.5,1.1-6.9,3.6-9.3c2.5-2.4,5.9-3.6,9.4-3.5h3.2c9.8,0,18,2.2,24.6,6.6c6.3,4.1,11.5,9.8,14.9,16.5c3.3,6.6,5,14,4.8,21.4
	c0,7.4-1.7,14.7-4.9,21.3c-3.3,6.7-8.4,12.4-14.7,16.5C1486.5,1143.1,1478.2,1145.3,1468.5,1145.3L1468.5,1145.3z M1465.1,1059.3
	c-2.7-0.1-5.4,0.8-7.4,2.7c-1.9,1.9-2.9,4.6-2.7,7.3v63.2c-0.2,2.7,0.8,5.4,2.7,7.3c2,1.9,4.7,2.8,7.4,2.7h3.4
	c9.2,0,16.9-2.1,23-6.1c5.8-3.8,10.6-9.1,13.7-15.4c3-6.3,4.6-13.1,4.6-20.1c0.1-7-1.5-13.8-4.5-20.1c-3.2-6.3-8-11.6-13.9-15.4
	c-6.1-4.1-13.9-6.1-23-6.1L1465.1,1059.3z"/>
<path class="st0" d="M1604.9,1160.9c-2.2-2.2-3.3-5.3-3.2-8.4v-103.3c-0.4-6,4.1-11.2,10.1-11.6c0.5,0,1,0,1.4,0h60.3
	c5.1-0.3,9.6,3.5,9.9,8.7c0,0.4,0,0.8,0,1.3c0.1,2.8-0.8,5.5-2.7,7.5c-1.9,1.9-4.5,2.9-7.2,2.8h-40.8c-5-0.2-9.2,3.6-9.4,8.6
	c0,0.3,0,0.5,0,0.8v14.1c-0.2,5,3.6,9.2,8.6,9.4c0.3,0,0.5,0,0.8,0h27.6c2.7-0.2,5.4,0.8,7.4,2.7c1.9,1.9,2.8,4.6,2.7,7.2
	c0.1,2.8-0.8,5.5-2.7,7.5c-2,1.9-4.7,2.9-7.4,2.8h-27.6c-5-0.2-9.2,3.6-9.4,8.6c0,0.3,0,0.5,0,0.8v14.1c-0.2,5,3.6,9.2,8.6,9.4
	c0.3,0,0.5,0,0.8,0h40.8c5.1-0.3,9.6,3.5,9.9,8.7c0,0.4,0,0.8,0,1.3c0.1,2.8-0.8,5.5-2.7,7.5c-1.9,1.9-4.5,2.9-7.2,2.8h-60.3
	C1610.2,1164.2,1607.1,1163.1,1604.9,1160.9z"/>
<path class="st0" d="M1673.6,1165.5h-60.3c-6.8,0.4-12.6-4.8-13-11.6c0-0.5,0-0.9,0-1.4v-103.3c-0.4-6.8,4.8-12.6,11.6-13
	c0.5,0,1,0,1.4,0h60.3c5.9-0.4,11,4.2,11.4,10.1c0,0.4,0,0.9,0,1.3c0.1,3.1-1,6.2-3.1,8.5c-2.2,2.2-5.2,3.4-8.3,3.2h-40.8
	c-4.2-0.3-7.7,2.9-8,7.1c0,0.3,0,0.6,0,0.9v14.1c-0.3,4.2,2.9,7.7,7.1,8c0.3,0,0.6,0,0.9,0h27.6c3.1-0.2,6.2,1,8.4,3.1
	c2.1,2.2,3.3,5.2,3.1,8.2c0.1,3.1-1,6.2-3.1,8.5c-2.2,2.2-5.3,3.4-8.4,3.2h-27.6c-4.2-0.3-7.7,2.9-8,7.1c0,0.3,0,0.6,0,0.9v14.1
	c-0.3,4.2,2.9,7.7,7.1,8c0.3,0,0.6,0,0.9,0h40.8c5.9-0.4,11,4.2,11.4,10.1c0,0.4,0,0.9,0,1.3c0.1,3.1-1,6.2-3.1,8.5
	C1679.7,1164.6,1676.7,1165.7,1673.6,1165.5z M1613.3,1039.1c-5.2-0.4-9.7,3.5-10.1,8.7c0,0.5,0,0.9,0,1.4v103.3
	c-0.1,2.7,0.8,5.4,2.7,7.4l0,0c2,1.9,4.6,2.9,7.4,2.7h60.3c2.3,0.1,4.5-0.7,6.2-2.4c1.6-1.8,2.4-4.1,2.3-6.5
	c0.3-4.3-2.9-8.1-7.2-8.5c-0.4,0-0.8,0-1.2,0h-40.8c-5.8,0.2-10.6-4.2-10.8-10c0-0.3,0-0.6,0-0.8v-14.1c-0.2-5.7,4.2-10.6,10-10.8
	c0.3,0,0.6,0,0.9,0h27.6c2.4,0.1,4.7-0.7,6.4-2.4c1.6-1.8,2.4-4.1,2.3-6.5c0.1-2.3-0.7-4.5-2.3-6.2c-1.7-1.6-4-2.4-6.4-2.3h-27.6
	c-5.7,0.2-10.6-4.2-10.8-10c0-0.3,0-0.6,0-0.9v-14.1c-0.2-5.7,4.2-10.6,10-10.8c0.3,0,0.6,0,0.9,0h40.8c2.3,0.1,4.5-0.7,6.2-2.4
	c1.6-1.8,2.4-4.1,2.3-6.5c0.3-4.3-2.9-8.2-7.3-8.5c-0.4,0-0.8,0-1.2,0L1613.3,1039.1z"/>
<path class="st0" d="M1752.1,1039c0.9-0.9,2.2-1.4,3.5-1.4c1.5,0,3,0.6,4,1.6l65.6,70.4c1.8,1.8,3.3,2.7,4.5,2.7
	c1.7,0,2.5-1.8,2.5-5.4v-58.7c-0.3-5.6,4.1-10.4,9.7-10.7c0.3,0,0.6,0,0.9,0c3-0.1,5.9,0.9,8,3c2,2,3.1,4.8,3,7.7v110.9
	c0.1,2.6-1.8,4.7-4.4,4.9c-0.2,0-0.3,0-0.5,0c-1.5,0.1-3-0.6-4-1.8l-65.6-70.6c-1.8-1.8-3.3-2.7-4.5-2.7c-1.7,0-2.5,1.8-2.5,5.4
	v59.1c0.2,5.6-4.1,10.4-9.8,10.7c-0.3,0-0.6,0-0.9,0c-3,0.1-5.9-0.9-8-3c-2-2-3.1-4.8-3-7.7v-110.9
	C1750.7,1041.2,1751.2,1039.9,1752.1,1039z"/>
<path class="st0" d="M1849,1165.5c-2,0.1-3.8-0.8-5.1-2.3l-65.5-70.6c-2-2-3.1-2.2-3.5-2.2c-0.7,0-1.1,1.6-1.1,4v59.1
	c0.2,6.4-4.8,11.9-11.2,12.1c-0.3,0-0.6,0-0.9,0c-3.4,0.2-6.6-1.1-9.1-3.4c-2.3-2.3-3.5-5.4-3.4-8.7v-110.9
	c-0.1-1.7,0.6-3.3,1.8-4.5l0,0c1.2-1.2,2.9-1.8,4.6-1.8c1.9,0,3.7,0.7,5,2l65.6,70.5c2,2,3.1,2.2,3.5,2.2c0.7,0,1.1-1.6,1.1-4v-58.7
	c-0.3-6.4,4.7-11.8,11.2-12.1c0.3,0,0.6,0,0.9,0c3.4-0.2,6.6,1.1,9.1,3.4c2.3,2.3,3.5,5.5,3.4,8.7v110.9c0.1,3.4-2.5,6.2-5.8,6.3
	C1849.3,1165.5,1849.2,1165.5,1849,1165.5L1849,1165.5z M1774.9,1087.5c1.6,0,3.4,1,5.5,3.1l65.7,70.7c1.1,1.6,3.3,1.9,4.8,0.8
	c0.9-0.7,1.5-1.8,1.4-3v-110.9c0.1-2.5-0.8-4.9-2.6-6.7c-1.9-1.8-4.4-2.7-7-2.6c-4.8-0.2-9,3.5-9.2,8.3c0,0.3,0,0.6,0,0.9v58.7
	c0,5.7-2.2,6.9-4,6.9c-1.6,0-3.4-1-5.5-3.1l-65.6-70.5c-0.8-0.8-1.8-1.2-2.9-1.2c-1.8-0.1-3.3,1.2-3.4,3c0,0.2,0,0.3,0,0.5v110.9
	c-0.1,2.5,0.8,4.9,2.6,6.7c1.9,1.8,4.4,2.7,7,2.6c4.8,0.2,9-3.5,9.2-8.3c0-0.3,0-0.6,0-0.9v-59.1
	C1771,1088.7,1773.1,1087.5,1774.9,1087.5L1774.9,1087.5z"/>
<path class="st0" d="M1917.5,1047.9c-0.1-2.8,0.8-5.5,2.7-7.5c1.9-1.9,4.5-2.9,7.2-2.8h84.2c5.1-0.3,9.6,3.5,9.9,8.7
	c0,0.4,0,0.8,0,1.3c0.1,2.8-0.8,5.5-2.7,7.5c-1.9,1.9-4.5,2.9-7.2,2.8h-21.5c-5.1-0.3-9.6,3.5-9.9,8.7c0,0.4,0,0.8,0,1.3v85.6
	c0.1,2.8-0.9,5.6-2.9,7.7c-2,2-4.9,3.1-7.8,3c-3,0.1-5.9-0.9-8-3c-2-2-3.1-4.8-3-7.7v-85.6c0.1-2.7-0.8-5.3-2.6-7.2
	c-1.9-1.9-4.5-2.8-7.1-2.7h-21.3c-5.1,0.3-9.6-3.5-9.9-8.7C1917.5,1048.8,1917.5,1048.4,1917.5,1047.9L1917.5,1047.9z"/>
<path class="st0" d="M1969.5,1165.5c-3.4,0.2-6.6-1.1-9.1-3.4c-2.3-2.3-3.5-5.4-3.4-8.7v-85.6c0.1-2.3-0.7-4.5-2.2-6.2
	c-1.6-1.6-3.8-2.4-6.1-2.3h-21.3c-5.9,0.4-11-4.2-11.4-10.1c0-0.4,0-0.9,0-1.3c-0.1-3.1,1-6.2,3.1-8.5c2.2-2.2,5.2-3.4,8.3-3.2h84.2
	c5.9-0.3,11,4.2,11.4,10.1c0,0.4,0,0.8,0,1.2c0.1,3.1-1,6.2-3.1,8.5c-2.2,2.2-5.2,3.4-8.3,3.2h-21.5c-4.3-0.3-8.2,2.9-8.5,7.3
	c0,0.4,0,0.8,0,1.2v85.6c0.1,3.2-1.1,6.3-3.3,8.7C1976,1164.4,1972.8,1165.7,1969.5,1165.5z M1927.4,1039.1
	c-2.3-0.1-4.6,0.7-6.2,2.4c-1.6,1.8-2.4,4.1-2.3,6.5c-0.3,4.3,2.9,8.2,7.3,8.5c0.4,0,0.8,0,1.2,0h21.3c3-0.1,6,1,8.2,3.2
	c2.1,2.2,3.1,5.2,3,8.2v85.6c-0.1,2.5,0.8,4.9,2.6,6.7c1.9,1.8,4.4,2.7,7,2.6c2.5,0.1,4.9-0.8,6.7-2.5c1.7-1.8,2.6-4.2,2.5-6.7
	v-85.6c-0.4-5.9,4.2-11,10.1-11.4c0.4,0,0.9,0,1.3,0h21.5c2.3,0.1,4.6-0.7,6.2-2.4c1.6-1.8,2.4-4.1,2.3-6.5c0.3-4.3-2.9-8.2-7.3-8.5
	c-0.4,0-0.8,0-1.2,0H1927.4z"/>
<path class="st0" d="M2074.4,1164.1c-4.6,0-7.7-1.3-9.4-3.8c-1.7-2.5-1.5-5.9,0.6-10.1l44.2-97c3-6.4,6.3-9.6,9.9-9.6
	s6.9,3.2,9.8,9.6l44.4,96.8c1.9,4.2,2,7.6,0.4,10.2c-1.7,2.6-4.8,3.9-9.4,3.9c-2.1,0-4.1-0.6-5.9-1.7c-1.7-1.1-3.1-2.6-4.1-4.4
	l-1.1-2.3c-1.3-2.7-3.3-5-5.9-6.7c-2.5-1.7-5.4-2.5-8.4-2.5h-39.7c-3,0-6,0.9-8.6,2.5c-2.5,1.6-4.6,4-5.9,6.7l-0.9,2.2
	c-0.9,1.9-2.4,3.5-4.1,4.6c-1.7,1.1-3.7,1.7-5.8,1.7L2074.4,1164.1z M2104,1115.5c-1.6,3.1-1.7,5.7-0.4,7.7c1.3,2,3.7,3,7.1,3h17.9
	c3.5,0,5.9-1,7.1-3s1.2-4.6-0.3-7.7l-10.8-23.5c-1.4-3.1-3.1-4.7-4.9-4.7s-3.4,1.6-4.9,4.7L2104,1115.5z"/>
<path class="st0" d="M2164.9,1165.5c-2.4,0-4.7-0.7-6.7-2c-1.9-1.2-3.5-3-4.5-5l-1.1-2.4c-1.2-2.5-3-4.6-5.4-6.1
	c-2.3-1.5-4.9-2.3-7.6-2.3h-39.7c-2.8,0-5.5,0.8-7.8,2.3c-2.3,1.5-4.2,3.6-5.4,6.1l-0.9,2.2c-1,2.1-2.7,3.9-4.7,5.2
	c-2,1.3-4.2,1.9-6.6,1.9h-0.2c-5.1,0-8.6-1.5-10.6-4.4s-1.8-6.9,0.4-11.5l44.2-97c3.3-7,7-10.4,11.2-10.4s7.9,3.4,11.1,10.4
	l44.4,96.8c2.1,4.7,2.2,8.6,0.3,11.6S2170,1165.5,2164.9,1165.5z M2099.9,1144.9h39.7c3.3,0,6.5,1,9.2,2.8c2.8,1.8,5,4.3,6.4,7.3
	l1.1,2.4c0.8,1.6,2.1,2.9,3.6,3.8c1.5,1,3.3,1.5,5.1,1.5c4.1,0,6.8-1.1,8.2-3.2s1.3-5.1-0.5-8.8l-44.4-96.8
	c-2.6-5.8-5.5-8.7-8.4-8.7s-5.9,3-8.6,8.8l-44.2,97c-1.8,3.7-2,6.7-0.6,8.7s4.1,3.2,8.2,3.2h0.2c1.8,0,3.5-0.5,5-1.5
	c1.6-1,2.8-2.4,3.6-4l0.9-2.1c1.4-3,3.6-5.5,6.4-7.3C2093.3,1145.9,2096.6,1144.9,2099.9,1144.9L2099.9,1144.9z M2128.6,1127.6
	h-17.9c-4,0-6.8-1.2-8.4-3.7s-1.4-5.5,0.4-9.1l10.8-23.5c1.7-3.7,3.8-5.5,6.2-5.5s4.5,1.9,6.2,5.5l10.8,23.5
	c1.7,3.6,1.7,6.6,0.2,9.1S2132.6,1127.6,2128.6,1127.6L2128.6,1127.6z M2119.8,1088.8c-1.5,0-2.8,2.1-3.6,3.9l-10.9,23.5
	c-1.3,2.7-1.5,4.7-0.5,6.3s2.9,2.3,5.9,2.3h17.9c3,0,4.9-0.8,5.9-2.3s0.9-3.6-0.4-6.3l-10.8-23.5
	C2122.5,1090.8,2121.2,1088.8,2119.8,1088.8L2119.8,1088.8z"/>
<path class="st0" d="M2246.8,1040.6c2-2,4.8-3.1,7.7-3h0.4c5.6-0.3,10.4,4.1,10.7,9.7c0,0.3,0,0.6,0,0.9v84
	c-0.4,6,4.1,11.2,10.1,11.6c0.5,0,1,0,1.4,0h38.6c5.1-0.3,9.6,3.5,9.9,8.7c0,0.4,0,0.8,0,1.3c0.1,2.8-0.8,5.5-2.7,7.5
	c-1.9,1.9-4.5,2.9-7.2,2.8h-56.5c-8,0.5-14.9-5.7-15.4-13.7c0-0.5,0-1.1,0-1.6v-100.4C2243.7,1045.4,2244.8,1042.7,2246.8,1040.6z"
	/>
<path class="st0" d="M2315.7,1165.5h-56.5c-8.8,0.5-16.3-6.3-16.8-15.2c0-0.5,0-1.1,0-1.6v-100.4c-0.2-6.4,4.8-11.9,11.2-12.1
	c0.3,0,0.6,0,0.9,0h0.4c6.4-0.3,11.8,4.7,12.1,11.2c0,0.3,0,0.6,0,0.9v84c-0.4,5.2,3.5,9.7,8.7,10.1c0.5,0,0.9,0,1.4,0h38.6
	c5.9-0.4,11,4.2,11.4,10.1c0,0.4,0,0.9,0,1.3c0.1,3.1-1,6.2-3.1,8.5C2321.8,1164.5,2318.8,1165.7,2315.7,1165.5z M2254.5,1039.1
	c-4.8-0.2-9,3.5-9.2,8.3c0,0.3,0,0.6,0,0.9v100.4c-0.4,7.2,5.1,13.5,12.3,13.9c0.5,0,1.1,0,1.6,0h56.5c2.3,0.1,4.6-0.7,6.2-2.4
	c1.6-1.8,2.4-4.1,2.3-6.5c0.4-4.3-2.9-8.1-7.2-8.5c-0.4,0-0.9,0-1.3,0h-38.6c-6.8,0.4-12.6-4.8-13-11.6c0-0.5,0-0.9,0-1.4v-84
	c0.2-4.8-3.5-9-8.3-9.2c-0.3,0-0.6,0-0.9,0L2254.5,1039.1z"/>
<path class="st0" d="M2625.7,1166.8c-10.8,0-20.3-1.9-28.4-5.7c-7.8-3.5-14.7-8.6-20.4-14.9c-5.5-6.1-9.7-13.3-12.3-21.1
	c-5.4-15.7-5.4-32.7,0-48.4c2.6-7.8,6.8-15,12.3-21.1c5.7-6.3,12.7-11.4,20.4-14.9c8.1-3.8,17.6-5.7,28.4-5.7
	c4.9,0,9.8,0.6,14.6,1.8c4.8,1.2,9.5,3,13.9,5.2c2.6,1.2,4.5,3.5,5.1,6.3c0.6,2.8-0.1,5.5-2.2,8.3c-1.9,3-5.3,4.8-8.9,4.7
	c-2.2-0.1-4.4-0.6-6.5-1.4c-2.4-1-4.9-1.8-7.4-2.4c-2.8-0.7-5.6-1-8.5-1c-9.5,0-17.4,2.2-23.8,6.6c-6.1,4.1-11,9.8-14.2,16.4
	c-6.3,13.6-6.3,29.2,0,42.8c3.2,6.6,8.1,12.3,14.2,16.4c6.3,4.4,14.2,6.6,23.8,6.6c3.1,0,6.1-0.2,9.1-0.8c2.4-0.5,4.7-1.2,6.9-2.3
	c2.1-0.9,4.3-1.4,6.5-1.4c3.5,0,6.8,1.6,8.9,4.5c1.8,2.4,2.6,5.4,2.2,8.3c-0.5,2.8-2.2,5.2-4.7,6.5c-4,2.3-8.4,4-12.9,5.1
	C2636.5,1166.3,2631.1,1166.9,2625.7,1166.8z"/>
<path class="st0" d="M2625.7,1168.2c-11,0-20.8-2-29.1-5.8c-7.9-3.6-15-8.8-20.9-15.2c-5.6-6.3-9.9-13.6-12.6-21.6
	c-5.5-16-5.5-33.3,0-49.3c2.7-8,7-15.3,12.6-21.6c5.8-6.5,13-11.6,20.9-15.2c8.3-3.9,18.1-5.8,29.1-5.8c5.1,0,10.1,0.6,15,1.8
	c4.9,1.2,9.7,3,14.2,5.3c3,1.4,5.1,4.1,5.8,7.3c0.7,3.2-0.1,6.4-2.4,9.5c-2.2,3.4-6,5.4-10,5.3c-2.4-0.1-4.8-0.6-7-1.5
	c-2.4-1-4.8-1.8-7.2-2.4c-2.7-0.7-5.4-1-8.1-1c-9.2,0-16.9,2.1-22.9,6.3c-5.9,4-10.6,9.5-13.7,15.9c-6.1,13.2-6.1,28.4,0,41.6
	c3.1,6.4,7.8,11.9,13.7,15.9c6,4.2,13.8,6.3,22.9,6.3c3,0,5.9-0.2,8.8-0.8c2.3-0.5,4.5-1.2,6.6-2.2h0.1c2.2-0.9,4.6-1.4,7-1.5
	c4-0.1,7.7,1.8,10,5.1c2.1,2.7,2.9,6.1,2.4,9.4c-0.5,3.2-2.5,6-5.4,7.5c-4.2,2.4-8.6,4.1-13.3,5.2
	C2636.8,1167.7,2631.2,1168.3,2625.7,1168.2z M2625.7,1036.4c-10.6,0-19.9,1.9-27.8,5.6c-7.6,3.4-14.4,8.4-20,14.6
	c-5.3,6-9.4,13-12,20.6c-5.3,15.4-5.3,32.1,0,47.5c2.6,7.6,6.7,14.6,12,20.6c5.6,6.2,12.4,11.1,20,14.6c7.9,3.7,17.3,5.6,27.8,5.6
	c5.3,0.1,10.6-0.5,15.8-1.6c4.4-1,8.6-2.7,12.5-4.9c2.1-1.1,3.6-3.1,4-5.5c0.4-2.6-0.3-5.2-1.9-7.2c-1.8-2.5-4.6-3.9-7.7-3.9
	c-2,0.1-4,0.5-5.9,1.3c-2.3,1.1-4.7,1.8-7.2,2.3c-3.1,0.6-6.3,0.9-9.4,0.8c-9.8,0-18-2.3-24.6-6.8c-6.3-4.3-11.3-10.1-14.7-17
	c-6.4-14-6.4-30.1,0-44.1c3.3-6.9,8.4-12.7,14.7-17c6.5-4.5,14.8-6.8,24.6-6.8c3,0,5.9,0.3,8.8,1c2.6,0.6,5.1,1.5,7.6,2.5
	c1.9,0.8,3.9,1.2,5.9,1.3c3.1,0.1,6-1.5,7.7-4.1c1.8-2.5,2.4-4.8,1.9-7.2c-0.5-2.4-2.1-4.3-4.3-5.3c-4.3-2.2-8.9-3.9-13.6-5.1
	C2635.3,1036.9,2630.5,1036.4,2625.7,1036.4z"/>
<path class="st0" d="M2735.4,1040.6c2-2,4.8-3.1,7.7-3h0.4c5.6-0.2,10.4,4.1,10.7,9.8c0,0.3,0,0.6,0,0.9v84
	c-0.4,6,4.1,11.2,10.1,11.6c0.5,0,0.9,0,1.4,0h38.7c5.1-0.3,9.6,3.5,9.9,8.7c0,0.4,0,0.8,0,1.3c0.1,2.8-0.8,5.5-2.7,7.5
	c-1.9,1.9-4.5,2.9-7.2,2.8h-56.5c-8,0.4-14.9-5.7-15.4-13.7c0-0.5,0-1.1,0-1.6v-100.4C2732.3,1045.4,2733.4,1042.7,2735.4,1040.6z"
	/>
<path class="st0" d="M2804.3,1165.5h-56.5c-8.8,0.4-16.3-6.3-16.8-15.2c0-0.5,0-1.1,0-1.6v-100.4c-0.3-6.4,4.7-11.8,11.2-12.1
	c0.3,0,0.6,0,0.9,0h0.4c6.4-0.3,11.8,4.7,12.1,11.2c0,0.3,0,0.6,0,0.9v84c-0.4,5.2,3.5,9.7,8.7,10.1c0.5,0,0.9,0,1.4,0h38.6
	c5.9-0.4,11,4.2,11.4,10.1c0,0.4,0,0.9,0,1.3c0.1,3.1-1,6.2-3.1,8.5C2810.4,1164.5,2807.4,1165.7,2804.3,1165.5z M2743.1,1039.1
	c-4.8-0.2-9,3.5-9.2,8.3c0,0.3,0,0.6,0,0.9v100.4c0,4.2,1.2,7.5,3.8,10.1s5.9,3.8,10.1,3.8h56.5c2.3,0.1,4.6-0.7,6.2-2.4
	c1.6-1.8,2.4-4.1,2.3-6.5c0.3-4.3-2.9-8.1-7.2-8.5c-0.4,0-0.8,0-1.2,0h-38.6c-6.8,0.4-12.6-4.8-13-11.6c0-0.5,0-0.9,0-1.4v-84
	c0.3-4.8-3.4-9-8.3-9.2c-0.3,0-0.6,0-0.9,0L2743.1,1039.1z"/>
<path class="st0" d="M2877.8,1048.3c-0.3-5.6,4.1-10.4,9.7-10.7c0.3,0,0.6,0,0.9,0c3-0.1,5.9,0.9,8,3c2,2,3.1,4.8,3,7.7v105.1
	c0.2,5.6-4.1,10.4-9.7,10.7c-0.3,0-0.6,0-0.9,0c-3,0.1-5.9-0.9-8-3c-2-2-3.1-4.8-3-7.7L2877.8,1048.3z"/>
<path class="st0" d="M2888.8,1165.5c-3.3,0.1-6.6-1.1-9-3.4c-2.3-2.3-3.5-5.4-3.4-8.7v-105.1c-0.2-6.4,4.8-11.9,11.2-12.1
	c0.3,0,0.6,0,0.9,0c3.4-0.2,6.6,1.1,9.1,3.4c2.3,2.3,3.5,5.5,3.4,8.7v105.1c0.2,6.4-4.8,11.9-11.2,12.1
	C2889.5,1165.5,2889.2,1165.5,2888.8,1165.5L2888.8,1165.5z M2888.4,1039.1c-4.8-0.2-9,3.5-9.2,8.3c0,0.3,0,0.6,0,0.9v105.1
	c-0.1,2.5,0.8,4.9,2.6,6.7c1.9,1.8,4.4,2.7,7,2.6c4.8,0.2,9-3.5,9.2-8.3c0-0.3,0-0.6,0-0.9v-105.1c0.1-2.5-0.8-4.9-2.6-6.7
	C2893.6,1039.9,2891,1038.9,2888.4,1039.1L2888.4,1039.1z"/>
<path class="st0" d="M2971.6,1039c0.9-0.9,2.2-1.4,3.5-1.4c1.5,0,3,0.6,4,1.6l65.6,70.4c1.8,1.8,3.3,2.7,4.5,2.7
	c1.7,0,2.5-1.8,2.5-5.4v-58.7c-0.3-5.6,4.1-10.4,9.7-10.7c0.3,0,0.6,0,0.9,0c3-0.1,5.9,0.9,8,3c2,2,3.1,4.8,3,7.7v110.9
	c0.1,2.6-1.8,4.7-4.4,4.9c-0.2,0-0.3,0-0.5,0c-1.5,0.1-3-0.6-4-1.8l-65.5-70.6c-1.8-1.8-3.3-2.7-4.5-2.7c-1.7,0-2.5,1.8-2.5,5.4
	v59.1c0.2,5.6-4.1,10.4-9.8,10.7c-0.3,0-0.6,0-0.9,0c-3,0.1-5.9-0.9-8-3c-2-2-3.1-4.8-3-7.7v-110.9
	C2970.2,1041.2,2970.7,1039.9,2971.6,1039z"/>
<path class="st0" d="M3068.5,1165.5c-2,0.1-3.8-0.8-5.1-2.3l-65.5-70.6c-2-2-3.1-2.2-3.5-2.2c-0.7,0-1.1,1.6-1.1,4v59.1
	c0.2,6.4-4.8,11.9-11.2,12.1c-0.3,0-0.6,0-0.9,0c-3.4,0.1-6.6-1.1-9.1-3.4c-2.3-2.3-3.5-5.4-3.4-8.7v-110.9
	c-0.1-1.7,0.6-3.3,1.8-4.5l0,0c1.2-1.2,2.9-1.8,4.6-1.8c1.9,0,3.7,0.7,5,2l65.6,70.5c2,2,3.1,2.2,3.5,2.2c0.7,0,1.1-1.6,1.1-4v-58.7
	c-0.3-6.4,4.7-11.8,11.2-12.1c0.3,0,0.6,0,0.9,0c3.4-0.2,6.6,1.1,9.1,3.4c2.3,2.3,3.5,5.5,3.4,8.7v110.9c0.1,3.4-2.5,6.2-5.9,6.3
	C3068.9,1165.5,3068.7,1165.5,3068.5,1165.5L3068.5,1165.5z M2994.5,1087.5c1.6,0,3.4,1,5.5,3.1l65.7,70.7c1.1,1.6,3.3,1.9,4.8,0.8
	c0.9-0.7,1.5-1.8,1.4-3v-110.9c0.1-2.5-0.8-4.9-2.6-6.7c-1.9-1.8-4.4-2.7-7-2.6c-4.8-0.2-9,3.5-9.2,8.3c0,0.3,0,0.6,0,0.9v58.7
	c0,5.7-2.2,6.9-4,6.9c-1.6,0-3.4-1-5.5-3.1l-65.6-70.5c-0.8-0.8-1.8-1.2-2.9-1.2c-0.9,0-1.8,0.3-2.5,0.9l0,0c-0.6,0.7-1,1.6-0.9,2.5
	v110.9c-0.1,2.5,0.8,4.9,2.6,6.7c1.9,1.8,4.4,2.7,7,2.6c4.8,0.2,9-3.5,9.2-8.3c0-0.3,0-0.6,0-0.9v-59.1
	C2990.5,1088.7,2992.7,1087.5,2994.5,1087.5L2994.5,1087.5z"/>
<path class="st0" d="M3144.2,1048.3c-0.3-5.6,4.1-10.4,9.7-10.7c0.3,0,0.6,0,0.9,0c3-0.1,5.9,0.9,8,3c2,2,3.1,4.8,3,7.7v105.1
	c0.2,5.6-4.1,10.4-9.7,10.7c-0.3,0-0.6,0-0.9,0c-3,0.1-5.9-0.9-8-3c-2-2-3.1-4.8-3-7.7V1048.3z"/>
<path class="st0" d="M3155.2,1165.5c-3.4,0.1-6.6-1.1-9.1-3.4c-2.3-2.3-3.5-5.5-3.4-8.7v-105.1c-0.3-6.4,4.7-11.8,11.2-12.1
	c0.3,0,0.6,0,0.9,0c3.4-0.2,6.6,1.1,9.1,3.4c2.3,2.3,3.5,5.5,3.4,8.7v105.1c0.2,6.4-4.8,11.9-11.2,12.1
	C3155.8,1165.5,3155.5,1165.5,3155.2,1165.5z M3154.9,1039.1c-4.8-0.3-9,3.5-9.2,8.3c0,0.3,0,0.6,0,0.9v105.1
	c-0.1,2.5,0.8,4.9,2.6,6.7c1.9,1.8,4.4,2.7,7,2.6c4.8,0.2,9-3.5,9.2-8.3c0-0.3,0-0.6,0-0.9v-105.1c0.1-2.5-0.8-4.9-2.6-6.7
	C3160,1039.9,3157.4,1038.9,3154.9,1039.1L3154.9,1039.1z"/>
<path class="st0" d="M3299,1166.8c-10.8,0-20.3-1.9-28.4-5.7c-7.8-3.5-14.7-8.6-20.4-14.9c-5.5-6.1-9.7-13.3-12.3-21.1
	c-5.4-15.7-5.4-32.7,0-48.4c2.6-7.8,6.8-15,12.3-21.1c5.7-6.3,12.7-11.4,20.4-14.9c8.1-3.8,17.6-5.7,28.4-5.7
	c4.9,0,9.8,0.6,14.6,1.8c4.8,1.2,9.5,3,13.9,5.2c2.6,1.2,4.4,3.5,5.1,6.3c0.6,2.8-0.1,5.5-2.2,8.3c-1.9,3-5.3,4.8-8.9,4.7
	c-2.2-0.1-4.4-0.6-6.5-1.4c-2.4-1-4.9-1.8-7.4-2.4c-2.8-0.7-5.6-1-8.5-1c-9.5,0-17.4,2.2-23.8,6.6c-6.1,4.1-11,9.8-14.2,16.4
	c-6.3,13.6-6.3,29.2,0,42.8c3.2,6.6,8.1,12.3,14.2,16.4c6.3,4.4,14.2,6.6,23.8,6.6c3.1,0,6.1-0.2,9.1-0.8c2.4-0.5,4.8-1.2,7-2.3
	c2.1-0.9,4.3-1.4,6.5-1.4c3.5,0,6.8,1.6,8.9,4.5c1.8,2.4,2.6,5.4,2.2,8.3c-0.5,2.8-2.2,5.2-4.7,6.5c-4,2.3-8.4,4-12.9,5.1
	C3309.9,1166.3,3304.4,1166.9,3299,1166.8z"/>
<path class="st0" d="M3299,1168.2c-11,0-20.8-2-29.1-5.8c-7.9-3.6-15-8.8-20.9-15.2c-5.6-6.3-9.9-13.6-12.6-21.6
	c-5.5-16-5.5-33.3,0-49.3c2.7-8,7-15.3,12.6-21.6c5.8-6.5,12.9-11.6,20.9-15.2c8.3-3.9,18.1-5.8,29.1-5.8c5.1,0,10.1,0.6,15,1.8
	c4.9,1.2,9.7,3,14.2,5.3c3,1.4,5.1,4.1,5.8,7.3c0.7,3.2-0.1,6.4-2.4,9.5c-2.2,3.4-6,5.4-10,5.3c-2.4-0.1-4.8-0.6-7-1.5
	c-2.4-1-4.8-1.8-7.2-2.4c-2.7-0.7-5.4-1-8.1-1c-9.2,0-16.9,2.1-22.9,6.3c-5.9,4-10.6,9.5-13.7,15.9c-6.1,13.2-6.1,28.4,0,41.6
	c3.1,6.4,7.8,11.9,13.7,15.9c6.1,4.2,13.8,6.3,22.9,6.3c3,0,5.9-0.2,8.8-0.8c2.3-0.5,4.5-1.2,6.6-2.2h0.1c2.2-0.9,4.6-1.4,7-1.5
	c4-0.1,7.7,1.9,10,5.1c2.1,2.7,2.9,6.1,2.4,9.4c-0.6,3.2-2.5,6-5.4,7.5c-4.2,2.4-8.7,4.1-13.3,5.2
	C3310.1,1167.7,3304.6,1168.3,3299,1168.2z M3299,1036.4c-10.6,0-19.9,1.9-27.8,5.6c-7.6,3.4-14.4,8.4-19.9,14.6
	c-5.3,6-9.4,13-12,20.6c-5.3,15.4-5.3,32.1,0,47.5c2.6,7.6,6.7,14.6,12,20.6c5.6,6.2,12.4,11.1,19.9,14.6c7.9,3.7,17.3,5.6,27.8,5.6
	c5.3,0.1,10.6-0.5,15.8-1.6c4.4-1,8.6-2.7,12.5-4.9c2.1-1.1,3.6-3.1,4-5.5c0.4-2.6-0.3-5.2-1.9-7.2c-1.8-2.5-4.6-3.9-7.7-3.9
	c-2,0.1-4.1,0.5-5.9,1.3c-2.3,1.1-4.7,1.8-7.2,2.3c-3.1,0.6-6.3,0.9-9.4,0.8c-9.8,0-18-2.3-24.6-6.8c-6.3-4.3-11.4-10.1-14.7-17
	c-6.5-14-6.5-30.1,0-44.1c3.3-6.9,8.4-12.7,14.7-17c6.5-4.5,14.8-6.8,24.6-6.8c3,0,5.9,0.3,8.8,1c2.6,0.6,5.1,1.5,7.6,2.5
	c1.9,0.8,3.9,1.2,5.9,1.3c3.1,0.1,6-1.5,7.7-4.1c1.8-2.5,2.5-4.8,1.9-7.2c-0.5-2.4-2.1-4.3-4.3-5.3c-4.3-2.2-8.9-3.9-13.6-5.1
	C3308.6,1036.9,3303.8,1036.4,3299,1036.4z"/>
<path class="st0" d="M320.9,311.1v150c0,99.3-19.9,158.9-99.3,158.9h-89.4v321.7c0.2,2.6-1.8,4.8-4.4,5c-0.2,0-0.4,0-0.6,0H8.1
	c-2.6,0.2-4.8-1.8-5-4.4c0-0.2,0-0.4,0-0.6V157.2c-0.2-2.6,1.8-4.8,4.4-5c0.2,0,0.4,0,0.6,0h213.5
	C301.1,152.2,320.9,211.8,320.9,311.1z M191.8,271.4h-59.6v229.4h59.6V271.4z"/>
<path class="st0" d="M489.8,609v218.5h124.1c2.6-0.2,4.8,1.8,5,4.4c0,0.2,0,0.4,0,0.6v109.2c0.2,2.6-1.8,4.8-4.4,5
	c-0.2,0-0.4,0-0.6,0H365.6c-2.6,0.2-4.8-1.8-5-4.4c0-0.2,0-0.4,0-0.6V157.2c-0.2-2.6,1.8-4.8,4.4-5c0.2,0,0.4,0,0.6,0H604
	c2.6-0.2,4.8,1.8,5,4.4c0,0.2,0,0.4,0,0.6v109.2c0.2,2.6-1.8,4.8-4.4,5c-0.2,0-0.4,0-0.6,0H489.8v218.4h94.3c2.6-0.2,4.8,1.8,5,4.4
	c0,0.2,0,0.4,0,0.6v109.2c0.2,2.6-1.8,4.8-4.4,5c-0.2,0-0.4,0-0.6,0L489.8,609z"/>
<path class="st0" d="M941.6,152.2c2.6-0.2,4.8,1.8,5,4.4c0,0.2,0,0.4,0,0.6v109.2c0.2,2.6-1.8,4.8-4.4,5c-0.2,0-0.4,0-0.6,0h-74.5
	v670.3c0.2,2.6-1.8,4.8-4.4,5c-0.2,0-0.4,0-0.6,0H743c-2.6,0.2-4.8-1.8-5-4.4c0-0.2,0-0.4,0-0.6V271.4h-74.5c-2.6,0.2-4.8-1.8-5-4.4
	c0-0.2,0-0.4,0-0.6V157.2c-0.2-2.6,1.8-4.8,4.4-5c0.2,0,0.4,0,0.6,0L941.6,152.2z"/>
<path class="st0" d="M1941.9,271.4h-59.6v144c0,10.9-1,29.8,19.9,39.7l79.4,39.7c60.6,29.8,89.4,65.5,89.4,146v147
	c0,99.3-19.9,158.9-99.3,158.9h-119.2c-79.4,0-99.3-59.6-99.3-158.9V627.9c-0.2-2.6,1.8-4.8,4.4-5c0.2,0,0.4,0,0.6,0h119.2
	c2.6-0.2,4.8,1.8,5,4.4c0,0.2,0,0.4,0,0.6v199.6h59.6V643.8c0-10.9,1-29.8-19.9-39.7l-79.4-39.7c-60.6-29.8-89.4-65.5-89.4-146
	V311.1c0-99.3,19.9-158.9,99.3-158.9h119.2c79.5,0,99.3,59.6,99.3,158.9v120.2c0.2,2.6-1.8,4.8-4.3,5c-0.2,0-0.4,0-0.7,0h-119.2
	c-2.6,0.2-4.8-1.8-5-4.3c0-0.2,0-0.4,0-0.7L1941.9,271.4z"/>
<path class="st0" d="M2115.7,946.7c-2.6,0.2-4.8-1.8-5-4.4c0-0.2,0-0.4,0-0.6V157.2c-0.2-2.6,1.8-4.8,4.4-5c0.2,0,0.4,0,0.6,0h178.8
	c3,0,5,1,5,5l28.8,312.8h19.9l28.8-312.8c0-4,2-5,5-5h178.7c2.6-0.2,4.8,1.8,5,4.4c0,0.2,0,0.4,0,0.6v784.6c0.2,2.6-1.8,4.8-4.4,5
	c-0.2,0-0.4,0-0.6,0h-119.2c-2.6,0.2-4.8-1.8-5-4.4c0-0.2,0-0.4,0-0.6v-432h-19.9l-38.7,432c0,4-2,5-5,5h-69.5c-3,0-5-1-5-5
	l-38.7-432h-19.9v432c0.2,2.6-1.8,4.8-4.4,5c-0.2,0-0.4,0-0.6,0L2115.7,946.7z"/>
<path class="st0" d="M2610.2,946.7c-2.6,0.2-4.8-1.8-5-4.4c0-0.2,0-0.4,0-0.6V157.2c-0.2-2.6,1.8-4.8,4.4-5c0.2,0,0.4,0,0.6,0h119.2
	c2.6-0.2,4.8,1.8,5,4.4c0,0.2,0,0.4,0,0.6v784.6c0.2,2.6-1.8,4.8-4.4,5c-0.2,0-0.4,0-0.6,0L2610.2,946.7z"/>
<path class="st0" d="M2779.1,946.7c-2.6,0.2-4.8-1.8-5-4.4c0-0.2,0-0.4,0-0.6V157.2c-0.2-2.6,1.8-4.8,4.4-5c0.2,0,0.4,0,0.6,0h119.2
	c2.6-0.2,4.8,1.8,5,4.4c0,0.2,0,0.4,0,0.6v670.4h114.2c2.6-0.2,4.8,1.8,5,4.4c0,0.2,0,0.4,0,0.6v109.2c0.2,2.6-1.8,4.8-4.4,5
	c-0.2,0-0.4,0-0.6,0L2779.1,946.7z"/>
<path class="st0" d="M3191.2,609v218.5h124.1c2.6-0.2,4.8,1.8,5,4.4c0,0.2,0,0.4,0,0.6v109.2c0.2,2.6-1.8,4.8-4.4,5
	c-0.2,0-0.4,0-0.6,0h-248.3c-2.6,0.2-4.8-1.8-5-4.4c0-0.2,0-0.4,0-0.6V157.2c-0.2-2.6,1.8-4.8,4.4-5c0.2,0,0.4,0,0.6,0h238.4
	c2.6-0.2,4.8,1.8,5,4.4c0,0.2,0,0.4,0,0.6v109.2c0.2,2.6-1.8,4.8-4.4,5c-0.2,0-0.4,0-0.6,0h-114.2v218.4h94.4c2.6-0.2,4.8,1.8,5,4.4
	c0,0.2,0,0.4,0,0.6v109.2c0.2,2.6-1.8,4.8-4.4,5c-0.2,0-0.4,0-0.6,0L3191.2,609z"/>
<path class="st0" d="M1301.5,48.1c33.3-11.3,68.6-15.2,103.5-11.5c34.8,3.5,67.7,13.4,101.5,21.5c21.4,5.1,40.5,7.5,60.3-1
	c1-0.4,1.2-0.2,0.6,0.7c-10.4,16.1-25.7,28.5-43.7,35.3c-0.4,0.1-0.5,0.5-0.4,0.9c0,0,0,0,0,0c0.1,0.2,0.2,0.3,0.4,0.4
	c33.1,11.2,66.8,24.6,100.3,31.4c19.7,4,36.6,2.9,53.5-8.5c0.8-0.5,1-0.4,0.6,0.5c-10.6,26.4-33.5,45.8-59.2,56.7
	c-0.5,0.2-0.9,0.6-1.2,1.1c-1.7,3-1,5.4,2.2,7.1c35.7,18.9,64.4,46,85.9,81.2c0.8,1.3,0.5,1.7-0.9,1.2c-6.2-2.2-12.6-3.7-19.2-4.5
	c-1.5-0.2-2.8,0.9-3,2.4c-0.1,0.7,0.1,1.4,0.5,1.9c36.2,47,34.4,116.6-12.2,156.3c-7.2,6.1-6.4,13.8-2.8,21.5
	c8.3,17.3,13.8,32.6,5.5,51.2c-3,6.9-11.9,12.5-4.2,20.5c31.2,32.8,52.3,78.4,42,124.3c-5.8,26-24.9,49-53.4,49.5
	c-0.5,0-1,0.3-1.1,0.8c-6.1,22.8-8,48.4-37.6,48.8c-2.2,0-4.8-1.3-7.3-0.9c-0.5,0.1-0.9,0.6-0.8,1.1c0,0,0,0,0,0
	c2.1,9.8,6.2,19,9.7,29.7c35,104.9-44.5,185.1-143.6,195.6c-85.2,9-161-26.5-218.4-87.6c-29.9-31.8-57.5-67.3-106.4-62.8
	c-23.8,2.2-46.1,14.6-62.8,31.7c-0.5,0.5-0.7,0.4-0.5-0.3c6.6-29.5,26-61.5,56.1-71.7c2.2-0.8,3.4-3.2,2.7-5.4
	c0-0.1-0.1-0.3-0.2-0.4c-1.2-2.7-3.6-4-7.1-3.7c-49.2,3.7-88.3,26.9-117.4,65.9c-0.8,1-1,0.9-0.9-0.3c6.2-51.5,37.2-112.2,92-125.7
	c4-1,6.4-2.9,4.1-7.2c-0.2-0.5-0.6-0.8-1.1-1c-77.4-29.6-141.3,17.3-160.8,91c-0.1,0.4-0.5,0.6-0.9,0.5c0,0,0,0,0,0
	c-0.3-0.1-0.5-0.3-0.5-0.6c-3.4-57.6,22.7-114.3,75.1-141.4c0.5-0.3,0.9-0.7,1.2-1.2c5.6-10.4-1.1-15.4-10-20
	C950.4,585.8,905.6,509,920.8,427.9c8.2-43.5,33.9-73.2,71.3-95.2c7.3-4.3,16.2-25.3,19.6-33.4c2.9-6.8-1.4-11.4-8.3-9.1
	c-20.4,6.6-39,17.8-54.4,32.7c-0.2,0.2-0.6,0.2-0.8,0c-0.1-0.2-0.2-0.4-0.1-0.6c20.4-53.8,55.9-103.7,95.9-144.6
	c62.1-63.8,136.7-114,219.1-147.5c25.2-10.3,50.7-20.3,76.5-30c0.7-0.3,0.9-0.1,0.5,0.6c-9.6,18.1-22.9,34-38.9,46.7
	c-0.2,0.1-0.2,0.3-0.1,0.5c0,0,0,0,0,0C1301.2,48.1,1301.4,48.2,1301.5,48.1z M1384.2,475.5c-24.9,18-53.7,20-81.1,30.9
	c-88.1,34.8-96.3,129.5-69.5,207.9C1268,815,1360.7,914.8,1474.2,921c73.3,4,137.2-48.8,125.2-126.4c-3.6-23.4-12.4-45.2-14.7-68.7
	c-0.1-0.5-0.5-1-1.1-0.9c0,0,0,0,0,0c-0.4,0-0.7,0.3-0.8,0.6c-8.4,18.2-3.5,37.7,1.6,59.4c16.7,70.4-54.3,95.6-109,88.7
	c-79.5-10.1-145.3-70.8-182.2-139.3c-22.7-42.2-37.6-98.3-22-146.4c0.2-0.6,0.8-0.9,1.4-0.7l0.2,0.1c28.8,18,60.6,30.5,93.9,37
	c7.1,1.4,18,2.9,32.8,4.6c80.5,9.2,161,17.8,241.6,25.9c4.7,0.5,13.4,0.9,16.5-0.5c34.3-15.7,23.4-62,10-87.4
	c-11.5-21.7-26-36.4-43.9-52.7c-0.5-0.4-0.5-1.2-0.1-1.6c0,0,0,0,0,0c0,0,0.1-0.1,0.1-0.1c23.9-19.1,33.1-53.4,0.7-70.6
	c-1.1-0.6-1.1-1.2,0-1.8c6.5-3.8,11.3-9.9,13.4-17.1c3.4-11,9.8-20.9,18.4-28.6l9.4-8.4c19.8-21,23.5-50,13.6-76.5
	c-27.4-72.9-110.6-70.8-166.3-36c-0.4,0.3-1,0.2-1.3-0.1c0,0,0,0,0,0c-30.3-35.3-65.9-61.1-112.5-69.2
	c-80.7-14-158.1,33.1-172.4,115.1c-8.5,48.6,9.2,124,70.2,130.2c0.4,0,0.7,0.3,0.7,0.6c0,0.4-0.3,0.7-0.6,0.7c0,0,0,0,0,0
	c-17.8,2.7-35.9,3.2-53.8,1.4c-0.4,0-0.7,0.2-0.7,0.6c0,0,0,0,0,0c0,0.2,0.1,0.5,0.3,0.6c41.9,26.9,92.4,31.8,141,21.2
	C1385.1,474.4,1385.2,474.7,1384.2,475.5z M1073.5,571c-0.3,0-0.6-0.3-0.5-0.7c0,0,0,0,0,0c0-0.2,0.1-0.4,0.3-0.5
	c34.2-17,57.9-43.2,68-81c0.8-3.1,0.2-3.4-1.7-0.9c-15.3,19.9-35.6,26.5-60.8,19.8c-0.4-0.1-0.5-0.3-0.1-0.5
	c28.6-19.3,48.6-45.7,48.3-81.1c-0.1-8.2-2.8-17.8-7.2-24.2c-41.8-61.4-128.7-44.4-155.5,20.6c-16.2,39.2-5.8,84.9,19.1,117.9
	c27.5,36.5,77,68.2,124.9,57c17.5-4.1,31.2-13.4,41.1-28c1.6-2.4,2.6-5.2,0.5-7.4c-0.8-0.8-2-1.1-3.1-0.7
	C1122.8,570.1,1098.8,574.5,1073.5,571z M1331.3,655c15.1,15.8,35-9.7,22.4-15c-4.4-1.8-13.6-4.6-27.6-8.4c-0.3-0.1-0.6,0-0.7,0.3
	c0,0.1,0,0.1,0,0.2C1323.5,641.3,1325.5,648.9,1331.3,655z M1389.3,646.2l-23.4-3.1c-3.2-0.4-6.1,1.8-6.6,5l0,0l-0.1,1.1
	c-1.3,9.6,5.5,18.3,15,19.6l0.3,0c9.6,1.3,18.3-5.5,19.6-15l0.2-1.1C1394.7,649.6,1392.4,646.6,1389.3,646.2L1389.3,646.2z
	 M1399.2,649c-19.5,30.8,35.8,52,41.4,18.3c1.1-6.5-0.5-13.8-7.3-15.8c-6.1-1.8-17.1-2.8-32.9-3.1
	C1399.9,648.3,1399.4,648.5,1399.2,649L1399.2,649z M1481.8,657.1l-28.2-3.3c-5.4-0.7-10.3,3.2-11,8.6c0,0,0,0,0,0l0,0l-0.8,6.4
	c-1.7,13.2,7.7,25.3,20.9,26.9l0,0h0.3c13.2,1.4,25.1-8.1,26.6-21.3c0,0,0,0,0,0l0,0l0.8-6.4C1491,662.6,1487.2,657.6,1481.8,657.1
	C1481.8,657,1481.8,657,1481.8,657.1L1481.8,657.1z M1549.1,664.1l-45.8-4.4c-5.9-0.6-11.1,3.8-11.7,9.7l-0.5,5
	c-1.6,16.5,10.8,31.3,27.7,32.9l6,0.6c16.9,1.6,31.8-10.5,33.4-27l0.5-5C1559.3,669.9,1555,664.6,1549.1,664.1
	C1549.1,664.1,1549,664.1,1549.1,664.1L1549.1,664.1z M1603.4,702.4c3.4,6.6,9.4,12.8,17.1,11.1c13.1-2.9,17.1-28,19.7-39.1
	c0.1-0.6-0.1-0.9-0.7-0.9c-32.8-3-54-5.1-63.6-6.3c-9.9-1.3-15.6,2.3-17,12.4c-3.1,20.9,9.8,42.4,33.5,30.9c3.8-1.8,6.6-5.3,9.8-8.3
	C1602.6,701.6,1603,701.7,1603.4,702.4L1603.4,702.4z M1469.5,774.9c-22.5-38.3-68.7-56.1-111.7-53.5c-8,0.5-24.5,4.7-25.2,14.7
	c-1.3,18.4,12.3,23.4,26.7,30.9c10.2,5.4,19.3,12.5,27.1,21c32.9,35.8,72.3,57,122.4,50.7c17.5-2.2,48.4-12.3,44.9-35
	c-6.5-40.8-55.5-62.7-91.8-64c-0.7,0-0.9,0.2-0.6,0.9c5.6,10.5,8.8,22.1,9.5,34c0,0.3-0.2,0.6-0.6,0.6c0,0,0,0,0,0
	C1469.8,775.2,1469.6,775.1,1469.5,774.9L1469.5,774.9z"/>
<path class="st0" d="M1400.8,313.4c-49.8-3-126.2,25.9-122.2,88.4c0.1,0.8-0.2,0.9-0.7,0.3c-7.7-9.3-12.7-20.6-14.5-32.6
	c-12.9-79.8,64.7-127.8,135.1-114.3c27.4,5.3,63.3,22,78.2,46.8c5.5,9.1,10.4,26.5,4.6,36.4c-8.3,13.9-21.4,2.2-29.3-4.5
	C1437.7,321.5,1419.7,314.3,1400.8,313.4z"/>
<path class="st0" d="M1579.3,337.9c-36.5-2.2-67.1,13.7-79.1,49.8c-0.1,0.3-0.4,0.4-0.7,0.3c0,0,0,0,0,0c-0.2-0.1-0.3-0.3-0.4-0.5
	c0-26.6,5.4-52,24.5-71.2c27.7-28,83-33.9,116.7-13.8c16.2,9.6,26.3,22.9,26.2,42.2c-0.1,18.4-14,26.4-29.5,15
	C1619.3,346.5,1601.5,339.2,1579.3,337.9z"/>
<path class="st0" d="M1425.9,346.1c-7.6-0.1-15.3-1.3-25.6-0.5c-26.8,2.2-49.1,11.4-67.2,31.8c-0.2,0.3-0.6,0.3-0.9,0.1c0,0,0,0,0,0
	c-0.2-0.2-0.3-0.5-0.2-0.7c11.4-34.8,47.2-46,80.2-37.7c5,1.2,9.7,3.2,14,6C1427.1,345.9,1427,346.2,1425.9,346.1z"/>
<path class="st0" d="M1362.6,401.2c-1.2-0.4-1.9-1.5-1.8-2.7c2.8-43.9,81.8-38.5,87.3,3.9c0.2,1.8-0.8,3.6-2.5,4.3l-13.3,5.3
	c-0.6,0.2-1.2,0-1.5-0.6c-10.2-22.1-38.7-28.5-52.6-6.2c-0.3,0.5-0.9,0.7-1.5,0.5L1362.6,401.2z"/>
<path class="st0" d="M1544.1,416.9c-4.5-0.7-20-3.7-18.5-10.6c4.3-20,19.5-30.5,39.5-31.4c18.3-0.8,43.2,13.7,40.9,35.5
	c-0.1,0.5-0.3,0.9-0.7,1.1c-5.6,3.5-11.9,5.8-18.4,6.8c-0.4,0.1-0.9-0.1-1-0.5c0-0.1,0-0.2,0-0.3c-2.3-24-33.4-24.1-40.1-1.7
	C1545.5,416.6,1544.8,417.1,1544.1,416.9z"/>
<path class="st0" d="M1032.5,537.9c-15.5-4.3-28.2-17.5-35.8-31.2c-14.7-26.4-10.5-59.4,8.7-82c33.5-39.5,96.8-22.4,90.4,34.6
	c-0.1,1.1-0.9,2.1-2,2.5c-27.4,10.4-31.9,42.3-21.8,66.4c0.1,0.2,0.1,0.4-0.1,0.5c0,0,0,0,0,0c-0.2,0.1-0.4,0-0.5-0.2l0,0
	c-15.9-23.2-20.8-59.8,3.6-79.3c1.3-1.1,1.5-3,0.5-4.3l-0.3-0.3c-16.1-15.5-43.2-2.5-52.7,14c-14.5,25.2-6,56.1,10.6,78.2
	C1033.8,537.9,1033.6,538.2,1032.5,537.9z"/>
<path class="st0" d="M1358.6,426.1c-7.6-1-15.5-0.7-23.3-0.6c-0.3,0-0.5-0.2-0.5-0.5c0-0.2,0.1-0.3,0.3-0.4
	c12.6-6.1,26.9-7.8,40.6-5c10,2,23.8,7.6,37.3,7.1c10.6-0.4,43.9-12.6,51.4-4.9c0.5,0.5,0.4,0.9-0.3,1.2
	c-10.8,3.8-21.3,7.7-31.9,12.2c-9.1,4-19.1,5.5-29,4.3C1388.1,437.8,1374.2,428.2,1358.6,426.1z"/>
<path class="st0" d="M1574,437.8c7.6,4.2,15.9,6.9,24.4,8c0.3,0,0.6,0.3,0.6,0.7c0,0.3-0.2,0.5-0.5,0.5c-13,3.8-22.4,3.2-35.1-2.4
	c-9-4-16.8-8.1-27.6-9.9c-23.7-3.7-49.2,0.3-71.1,9.8c-10.3,4.5-19.7,11.6-28.8,18.8c-0.2,0.2-0.5,0.1-0.6-0.1c0,0,0,0,0,0
	c-0.1-0.1-0.1-0.3-0.1-0.4c8.9-24.2,35.6-36.6,60.2-40.6c23.3-3.8,42.1,0.3,63.7,3.7c17.7,2.8,35.7,1.8,53-2.8
	c1.2-0.3,1.3,0,0.5,0.8c-8.5,8.7-26.6,12.6-38.3,12.5c-0.4,0-0.7,0.3-0.7,0.7c0,0,0,0,0,0C1573.6,437.4,1573.8,437.6,1574,437.8z"/>
<path class="st0" d="M1488.5,501.9c-11.4-5.8-23.9-14.4-18.1-28.6c3.7-9.1,18.3-7.1,26-3.7c21.3,9.3,40.6,30.3,32,54.9
	c-0.2,0.5-0.5,0.7-1,0.4C1514.1,517.5,1502.1,508.8,1488.5,501.9z"/>
<path class="st0" d="M1459.7,502.8c-12.9,1-27.9-8.9-22.1-23.6c0.5-1.4,2.1-2,3.4-1.5c0.6,0.2,1,0.6,1.3,1.1
	c4.9,8.4,10.8,16.2,17.6,23.3C1460.4,502.5,1460.3,502.8,1459.7,502.8z"/>
<path class="st0" d="M1592.2,483.4c8.6,0.3,14.5,9.3,12.9,17.1c-3.8,18.5-34.7,23.3-48.7,24.9c-0.6,0.1-1-0.2-1-0.8
	C1554.9,502.2,1567.5,482.4,1592.2,483.4z"/>
<rect x="2.2" y="1036.3" class="st0" width="1302.3" height="134.4"/>
<path class="st0" d="M1306.8,1172.9H0V1034h1306.8V1172.9z M4.5,1168.5h1297.9v-130H4.5V1168.5z"/>
</svg>
