<svg id="Capa_1" data-name="Capa 1" xmlns="http://www.w3.org/2000/svg" viewBox="0 0 3334.35 1172.93"><defs><style>.cls-1{fill:#19376d;}</style></defs><path class="cls-1" d="M1431.78,1053a14.57,14.57,0,0,1,15.35-15.35h22q16.07,0,28.27,5.42a59,59,0,0,1,20.22,14.36,60.74,60.74,0,0,1,12.11,20.23,68.37,68.37,0,0,1,0,46.42,60.94,60.94,0,0,1-12.11,20.23,58.94,58.94,0,0,1-20.22,14.35q-12.2,5.43-28.27,5.42h-22a14.57,14.57,0,0,1-15.35-15.35Zm21.68,79.45a11.08,11.08,0,0,0,3.16,8.33,11.5,11.5,0,0,0,8.39,3.07h3.44q14.27,0,23.75-6.33a40.35,40.35,0,0,0,14.18-15.93,47.36,47.36,0,0,0,4.78-20.72,45,45,0,0,0-4.69-20.73,41,41,0,0,0-14.36-15.93q-9.58-6.33-23.84-6.33H1465a11.5,11.5,0,0,0-8.39,3.08,11.06,11.06,0,0,0-3.16,8.32Z"/><path class="cls-1" d="M1469.17,1165.52h-22a16,16,0,0,1-16.79-16.8V1053a16,16,0,0,1,16.79-16.79h22c10.87,0,20.58,1.86,28.85,5.54a60.69,60.69,0,0,1,20.72,14.71,62.62,62.62,0,0,1,12.38,20.71,69.75,69.75,0,0,1,0,47.4,62.41,62.41,0,0,1-12.38,20.7A60.69,60.69,0,0,1,1498,1160C1489.75,1163.65,1480,1165.52,1469.17,1165.52Zm-22-126.44a13.14,13.14,0,0,0-13.91,13.91v95.73c0,4.22,1.25,7.52,3.83,10.09s5.86,3.82,10.08,3.82h22c10.46,0,19.77-1.78,27.68-5.29a58,58,0,0,0,19.74-14,59.64,59.64,0,0,0,11.82-19.75,66.84,66.84,0,0,0,0-45.44,59.68,59.68,0,0,0-11.82-19.76,57.79,57.79,0,0,0-19.74-14c-7.9-3.52-17.22-5.3-27.68-5.3Zm21.32,106.21H1465a13,13,0,0,1-9.41-3.49,12.5,12.5,0,0,1-3.6-9.36v-63.17a12.49,12.49,0,0,1,3.6-9.35,12.93,12.93,0,0,1,9.41-3.49h3.25c9.75,0,18,2.21,24.63,6.57a42.38,42.38,0,0,1,14.86,16.49,46.46,46.46,0,0,1,4.84,21.38,49,49,0,0,1-4.93,21.35,41.89,41.89,0,0,1-14.67,16.49C1486.47,1143.07,1478.21,1145.29,1468.45,1145.29Zm-3.43-86a10.09,10.09,0,0,0-7.4,2.67,9.64,9.64,0,0,0-2.72,7.29v63.17a9.61,9.61,0,0,0,2.72,7.29,10,10,0,0,0,7.4,2.67h3.43c9.18,0,16.9-2.05,23-6.09a39.12,39.12,0,0,0,13.68-15.36,46.21,46.21,0,0,0,4.64-20.11,43.71,43.71,0,0,0-4.54-20.06,39.58,39.58,0,0,0-13.87-15.37c-6.11-4.05-13.87-6.1-23-6.1Z"/><path class="cls-1" d="M1604.9,1160.91a11.32,11.32,0,0,1-3.16-8.4V1049.2a10.87,10.87,0,0,1,11.56-11.56h60.33a9.32,9.32,0,0,1,9.93,9.93,10.31,10.31,0,0,1-2.71,7.5,9.57,9.57,0,0,1-7.22,2.8h-40.82a9,9,0,0,0-9.4,9.39v14.09a9,9,0,0,0,9.4,9.39h27.63a10,10,0,0,1,7.41,2.71,9.81,9.81,0,0,1,2.71,7.23,10.32,10.32,0,0,1-2.71,7.49,9.83,9.83,0,0,1-7.41,2.8h-27.63a9,9,0,0,0-9.4,9.39v14.09a9,9,0,0,0,9.4,9.39h40.82a9.33,9.33,0,0,1,9.93,9.94,10.28,10.28,0,0,1-2.71,7.49,9.57,9.57,0,0,1-7.22,2.8H1613.3A11.35,11.35,0,0,1,1604.9,1160.91Z"/><path class="cls-1" d="M1673.63,1165.52H1613.3a12.31,12.31,0,0,1-13-13V1049.2a12.3,12.3,0,0,1,13-13h60.33a10.75,10.75,0,0,1,11.37,11.37,11.76,11.76,0,0,1-3.11,8.5,11,11,0,0,1-8.26,3.24h-40.82a7.54,7.54,0,0,0-8,8v14.09a7.54,7.54,0,0,0,8,8h27.63a11.44,11.44,0,0,1,8.43,3.13,11.23,11.23,0,0,1,3.13,8.25,11.76,11.76,0,0,1-3.12,8.5,11.25,11.25,0,0,1-8.44,3.23h-27.63a7.54,7.54,0,0,0-8,7.95v14.09a7.54,7.54,0,0,0,8,8h40.82a10.75,10.75,0,0,1,11.37,11.38,11.8,11.8,0,0,1-3.11,8.5A11,11,0,0,1,1673.63,1165.52Zm-60.33-126.44a9.44,9.44,0,0,0-10.12,10.12v103.31a9.88,9.88,0,0,0,2.74,7.38h0a9.9,9.9,0,0,0,7.38,2.74h60.33a8.1,8.1,0,0,0,6.18-2.36,8.85,8.85,0,0,0,2.31-6.49,7.89,7.89,0,0,0-8.49-8.49h-40.82a10.43,10.43,0,0,1-10.84-10.84v-14.09a10.41,10.41,0,0,1,10.84-10.83h27.63a8.38,8.38,0,0,0,6.37-2.36,8.87,8.87,0,0,0,2.3-6.49,8.31,8.31,0,0,0-2.28-6.21,8.56,8.56,0,0,0-6.39-2.29h-27.63a10.41,10.41,0,0,1-10.84-10.83v-14.09a10.41,10.41,0,0,1,10.84-10.83h40.82a8.1,8.1,0,0,0,6.18-2.36,8.88,8.88,0,0,0,2.31-6.5,7.9,7.9,0,0,0-8.49-8.49Z"/><path class="cls-1" d="M1752.1,1039a4.76,4.76,0,0,1,3.53-1.36,5.4,5.4,0,0,1,4,1.63l65.56,70.44c1.81,1.8,3.31,2.71,4.52,2.71,1.68,0,2.53-1.81,2.53-5.42v-58.7a10.21,10.21,0,0,1,10.65-10.66,10.86,10.86,0,0,1,8,3,10.39,10.39,0,0,1,3,7.68v110.9a4.63,4.63,0,0,1-4.87,4.87,4.82,4.82,0,0,1-4-1.8l-65.56-70.62q-2.71-2.72-4.52-2.71-2.54,0-2.53,5.41v59.07a10.21,10.21,0,0,1-10.65,10.65,10.83,10.83,0,0,1-8-3,10.35,10.35,0,0,1-3-7.67v-110.9A4.76,4.76,0,0,1,1752.1,1039Z"/><path class="cls-1" d="M1849,1165.52a6.22,6.22,0,0,1-5.07-2.31l-65.53-70.58c-2-2-3.1-2.25-3.46-2.25-.66,0-1.08,1.56-1.08,4v59.07a11.67,11.67,0,0,1-12.1,12.1,12.29,12.29,0,0,1-9.06-3.41,11.79,11.79,0,0,1-3.4-8.69v-110.9a6.16,6.16,0,0,1,1.77-4.54h0a6.22,6.22,0,0,1,4.55-1.77,6.82,6.82,0,0,1,5,2l65.6,70.47c2,2,3.09,2.25,3.46,2.25.66,0,1.09-1.56,1.09-4v-58.7a11.64,11.64,0,0,1,12.09-12.1,12.28,12.28,0,0,1,9.06,3.4,11.82,11.82,0,0,1,3.4,8.7v110.9a6.08,6.08,0,0,1-6.31,6.32Zm-74.06-78c1.62,0,3.43,1,5.54,3.14l65.67,70.74a3.47,3.47,0,0,0,6.28-2.17V1048.3a8.94,8.94,0,0,0-2.56-6.66,9.41,9.41,0,0,0-7-2.56,8.78,8.78,0,0,0-9.21,9.22V1107c0,5.67-2.16,6.86-4,6.86-1.62,0-3.43-1-5.54-3.13l-65.6-70.48a4,4,0,0,0-2.91-1.17,3.21,3.21,0,0,0-3.44,3.44v110.9a8.91,8.91,0,0,0,2.56,6.65,9.41,9.41,0,0,0,7,2.56,8.78,8.78,0,0,0,9.21-9.21v-59.07C1771,1088.68,1773.14,1087.49,1775,1087.49Z"/><path class="cls-1" d="M1917.46,1047.94a10.32,10.32,0,0,1,2.71-7.5,9.6,9.6,0,0,1,7.22-2.8h84.17a9.32,9.32,0,0,1,9.93,9.93,10.31,10.31,0,0,1-2.71,7.5,9.56,9.56,0,0,1-7.22,2.8h-21.49a9.33,9.33,0,0,0-9.94,9.93v85.62a10.53,10.53,0,0,1-2.89,7.67,10.3,10.3,0,0,1-7.76,3,10.83,10.83,0,0,1-8-3,10.35,10.35,0,0,1-3-7.67V1067.8a10,10,0,0,0-2.62-7.22,9.47,9.47,0,0,0-7.14-2.71h-21.31a9.32,9.32,0,0,1-9.93-9.93Z"/><path class="cls-1" d="M1969.48,1165.52a12.29,12.29,0,0,1-9.06-3.41,11.79,11.79,0,0,1-3.4-8.69V1067.8a8.5,8.5,0,0,0-2.22-6.22,8,8,0,0,0-6.1-2.27h-21.31a10.75,10.75,0,0,1-11.37-11.37,11.74,11.74,0,0,1,3.11-8.5,11,11,0,0,1,8.26-3.24h84.17a10.77,10.77,0,0,1,11.38,11.37,11.73,11.73,0,0,1-3.12,8.5,11,11,0,0,1-8.26,3.24h-21.49a7.9,7.9,0,0,0-8.5,8.49v85.62a12,12,0,0,1-3.29,8.68A11.74,11.74,0,0,1,1969.48,1165.52Zm-42.09-126.44a8.19,8.19,0,0,0-6.19,2.36,8.89,8.89,0,0,0-2.3,6.5,7.9,7.9,0,0,0,8.49,8.49h21.31a10.89,10.89,0,0,1,8.18,3.15,11.41,11.41,0,0,1,3,8.22v85.62a8.93,8.93,0,0,0,2.56,6.65,9.41,9.41,0,0,0,7,2.56,8.87,8.87,0,0,0,6.73-2.54,9.12,9.12,0,0,0,2.48-6.67V1067.8a10.75,10.75,0,0,1,11.38-11.37h21.49a8.14,8.14,0,0,0,6.19-2.36,8.87,8.87,0,0,0,2.3-6.5,7.9,7.9,0,0,0-8.49-8.49Z"/><path class="cls-1" d="M2074.42,1164.07q-6.87,0-9.4-3.79t.55-10.11l44.25-97q4.51-9.57,9.93-9.57t9.76,9.57l44.43,96.82q2.88,6.32.36,10.2t-9.39,3.88a10.48,10.48,0,0,1-5.87-1.71,11.92,11.92,0,0,1-4.07-4.43l-1.08-2.35a16.26,16.26,0,0,0-5.87-6.68,15.15,15.15,0,0,0-8.4-2.53h-39.74a15.45,15.45,0,0,0-8.58,2.53,16.26,16.26,0,0,0-5.87,6.68l-.9,2.17a11.4,11.4,0,0,1-4.15,4.61,10.67,10.67,0,0,1-5.78,1.71Zm29.62-48.58q-2.36,4.69-.45,7.67t7.13,3h17.88q5.24,0,7.14-3t-.28-7.67L2124.63,1092c-1.45-3.13-3.07-4.7-4.88-4.7s-3.43,1.57-4.87,4.7Z"/><path class="cls-1" d="M2164.91,1165.52a11.93,11.93,0,0,1-6.67-2,13.31,13.31,0,0,1-4.54-5l-1.12-2.42a14.82,14.82,0,0,0-5.35-6.08,13.77,13.77,0,0,0-7.61-2.29h-39.74a14.06,14.06,0,0,0-7.79,2.29,14.75,14.75,0,0,0-5.35,6.1l-.92,2.19a12.84,12.84,0,0,1-4.67,5.18,12.15,12.15,0,0,1-6.55,1.94h-.18c-5.07,0-8.63-1.5-10.6-4.44s-1.83-6.86.45-11.54l44.24-97c3.3-7,7-10.42,11.24-10.42s7.89,3.41,11.07,10.42l44.43,96.8c2.13,4.68,2.22,8.58.26,11.6S2170,1165.52,2164.91,1165.52Zm-65-20.59h39.74a16.63,16.63,0,0,1,9.19,2.76,17.72,17.72,0,0,1,6.38,7.27l1.09,2.37a10.44,10.44,0,0,0,3.55,3.82,8.93,8.93,0,0,0,5.08,1.48c4.09,0,6.76-1.06,8.18-3.23s1.26-5.05-.47-8.82l-44.43-96.8c-2.62-5.8-5.46-8.74-8.44-8.74s-5.89,3-8.63,8.75l-44.24,97c-1.82,3.74-2,6.66-.65,8.72s4.14,3.15,8.19,3.15h.18a9.12,9.12,0,0,0,5-1.49,9.89,9.89,0,0,0,3.62-4l.88-2.12a17.71,17.71,0,0,1,6.42-7.34A16.87,16.87,0,0,1,2099.88,1144.93Zm28.72-17.34h-17.88c-4,0-6.81-1.23-8.35-3.65s-1.42-5.49.37-9.08l10.83-23.46c1.69-3.67,3.77-5.53,6.18-5.53s4.49,1.86,6.19,5.53l10.83,23.48c1.66,3.59,1.72,6.64.18,9.06S2132.6,1127.59,2128.6,1127.59Zm-8.85-38.84c-1.47,0-2.75,2.1-3.56,3.86l-10.86,23.52c-1.34,2.67-1.51,4.72-.53,6.26s2.93,2.31,5.92,2.31h17.88c3,0,4.93-.76,5.92-2.31s.87-3.62-.36-6.3l-10.84-23.48C2122.51,1090.85,2121.23,1088.75,2119.75,1088.75Z"/><path class="cls-1" d="M2246.82,1040.62a10.35,10.35,0,0,1,7.67-3h.36a10.21,10.21,0,0,1,10.66,10.66v84a10.87,10.87,0,0,0,11.56,11.56h38.65a9.33,9.33,0,0,1,9.94,9.94,10.32,10.32,0,0,1-2.71,7.49,9.6,9.6,0,0,1-7.23,2.8h-56.53a14.55,14.55,0,0,1-15.35-15.35V1048.3A10.39,10.39,0,0,1,2246.82,1040.62Z"/><path class="cls-1" d="M2315.72,1165.52h-56.53a16,16,0,0,1-16.8-16.8V1048.3a11.66,11.66,0,0,1,12.1-12.1h.36a11.64,11.64,0,0,1,12.1,12.1v84a9.44,9.44,0,0,0,10.12,10.12h38.65a10.75,10.75,0,0,1,11.38,11.38,11.76,11.76,0,0,1-3.12,8.5A11,11,0,0,1,2315.72,1165.52Zm-61.23-126.44a8.78,8.78,0,0,0-9.21,9.22v100.42a13.13,13.13,0,0,0,13.91,13.91h56.53a8.14,8.14,0,0,0,6.19-2.36,8.85,8.85,0,0,0,2.3-6.49,7.87,7.87,0,0,0-8.49-8.49h-38.65a12.31,12.31,0,0,1-13-13v-84a8.78,8.78,0,0,0-9.22-9.22Z"/><path class="cls-1" d="M2625.66,1166.78q-16.26,0-28.45-5.69a62.13,62.13,0,0,1-20.41-14.9,60.87,60.87,0,0,1-12.28-21.13,74,74,0,0,1,0-48.41,61,61,0,0,1,12.28-21.13,62.13,62.13,0,0,1,20.41-14.9q12.2-5.68,28.45-5.69a60.37,60.37,0,0,1,14.63,1.81,64.35,64.35,0,0,1,13.9,5.24,9.12,9.12,0,0,1,5.06,6.32q.9,4.15-2.17,8.31a10.21,10.21,0,0,1-8.85,4.69,18.9,18.9,0,0,1-6.5-1.44,50.14,50.14,0,0,0-7.4-2.44,35.15,35.15,0,0,0-8.49-1q-14.28,0-23.75,6.6a41.59,41.59,0,0,0-14.18,16.43,51.09,51.09,0,0,0,0,42.81,41.69,41.69,0,0,0,14.18,16.44q9.48,6.58,23.75,6.59a45.15,45.15,0,0,0,9.12-.81,32,32,0,0,0,6.95-2.26,19,19,0,0,1,6.5-1.45,10.63,10.63,0,0,1,8.85,4.52,11,11,0,0,1,2.17,8.31,9.16,9.16,0,0,1-4.69,6.5,47.51,47.51,0,0,1-12.92,5.06A71.76,71.76,0,0,1,2625.66,1166.78Z"/><path class="cls-1" d="M2625.66,1168.22c-11,0-20.78-2-29.06-5.82a64,64,0,0,1-20.88-15.25,62.58,62.58,0,0,1-12.57-21.63,75.54,75.54,0,0,1,0-49.33,62.67,62.67,0,0,1,12.57-21.63,64,64,0,0,1,20.88-15.25c8.28-3.86,18.06-5.82,29.06-5.82a61.82,61.82,0,0,1,15,1.85,66.15,66.15,0,0,1,14.21,5.35,10.58,10.58,0,0,1,5.81,7.3c.69,3.18-.12,6.37-2.42,9.47a11.6,11.6,0,0,1-10,5.28,20.09,20.09,0,0,1-7-1.54,51.18,51.18,0,0,0-7.24-2.38,33.82,33.82,0,0,0-8.14-1c-9.17,0-16.88,2.13-22.93,6.33a40.33,40.33,0,0,0-13.7,15.88,49.63,49.63,0,0,0,0,41.56,40.37,40.37,0,0,0,13.7,15.87c6,4.21,13.76,6.34,22.93,6.34a43.65,43.65,0,0,0,8.82-.79,29.91,29.91,0,0,0,6.64-2.15l.1,0a20.32,20.32,0,0,1,7-1.54,12,12,0,0,1,10,5.09,12.4,12.4,0,0,1,2.44,9.42,10.54,10.54,0,0,1-5.38,7.5,48.7,48.7,0,0,1-13.32,5.22A72.93,72.93,0,0,1,2625.66,1168.22Zm0-131.85c-10.58,0-19.94,1.87-27.84,5.56a61.19,61.19,0,0,0-20,14.55,59.92,59.92,0,0,0-12,20.64,72.76,72.76,0,0,0,0,47.47,59.83,59.83,0,0,0,12,20.64,61.21,61.21,0,0,0,20,14.56c7.9,3.68,17.26,5.55,27.84,5.55a70,70,0,0,0,15.83-1.59,46.38,46.38,0,0,0,12.53-4.9,7.72,7.72,0,0,0,4-5.5,9.48,9.48,0,0,0-1.93-7.24,9.16,9.16,0,0,0-7.67-3.89,17.29,17.29,0,0,0-5.93,1.33,33.52,33.52,0,0,1-7.23,2.34,46.63,46.63,0,0,1-9.41.84c-9.78,0-18-2.3-24.58-6.85a43.37,43.37,0,0,1-14.66-17,52.63,52.63,0,0,1,0-44.05,43.37,43.37,0,0,1,14.66-17c6.54-4.54,14.81-6.85,24.58-6.85a36.46,36.46,0,0,1,8.83,1,52.75,52.75,0,0,1,7.62,2.51,17.57,17.57,0,0,0,5.94,1.33,8.78,8.78,0,0,0,7.67-4.08c1.83-2.47,2.45-4.81,1.94-7.18a7.7,7.7,0,0,0-4.31-5.35,63.94,63.94,0,0,0-13.59-5.11A59.1,59.1,0,0,0,2625.66,1036.37Z"/><path class="cls-1" d="M2735.38,1040.62a10.38,10.38,0,0,1,7.68-3h.36a10.22,10.22,0,0,1,10.66,10.66v84a10.87,10.87,0,0,0,11.55,11.56h38.66a9.33,9.33,0,0,1,9.93,9.94,10.28,10.28,0,0,1-2.71,7.49,9.56,9.56,0,0,1-7.22,2.8h-56.54a14.57,14.57,0,0,1-15.35-15.35V1048.3A10.39,10.39,0,0,1,2735.38,1040.62Z"/><path class="cls-1" d="M2804.29,1165.52h-56.54a16,16,0,0,1-16.79-16.8V1048.3a11.64,11.64,0,0,1,12.1-12.1h.36a11.64,11.64,0,0,1,12.1,12.1v84a9.44,9.44,0,0,0,10.12,10.12h38.65a10.75,10.75,0,0,1,11.37,11.38,11.75,11.75,0,0,1-3.11,8.5A11,11,0,0,1,2804.29,1165.52Zm-61.23-126.44a8.78,8.78,0,0,0-9.22,9.22v100.42c0,4.22,1.25,7.52,3.83,10.09s5.86,3.82,10.08,3.82h56.54a8.14,8.14,0,0,0,6.19-2.36,8.89,8.89,0,0,0,2.3-6.49,7.89,7.89,0,0,0-8.49-8.49h-38.65a12.33,12.33,0,0,1-13-13v-84a8.76,8.76,0,0,0-9.21-9.22Z"/><path class="cls-1" d="M2877.8,1048.3a10.21,10.21,0,0,1,10.65-10.66,10.86,10.86,0,0,1,8,3,10.39,10.39,0,0,1,3,7.68v105.12a10.21,10.21,0,0,1-10.66,10.65,10.82,10.82,0,0,1-8-3,10.35,10.35,0,0,1-3-7.67Z"/><path class="cls-1" d="M2888.81,1165.52a12.26,12.26,0,0,1-9-3.41,11.82,11.82,0,0,1-3.41-8.69V1048.3a11.66,11.66,0,0,1,12.1-12.1,12.28,12.28,0,0,1,9.06,3.4,11.82,11.82,0,0,1,3.4,8.7v105.12a11.66,11.66,0,0,1-12.1,12.1Zm-.36-126.44a8.78,8.78,0,0,0-9.21,9.22v105.12a8.89,8.89,0,0,0,2.56,6.65,9.39,9.39,0,0,0,7,2.56,8.78,8.78,0,0,0,9.22-9.21V1048.3a8.94,8.94,0,0,0-2.56-6.66A9.41,9.41,0,0,0,2888.45,1039.08Z"/><path class="cls-1" d="M2971.63,1039a4.72,4.72,0,0,1,3.52-1.36,5.38,5.38,0,0,1,4,1.63l65.56,70.44c1.81,1.8,3.32,2.71,4.52,2.71,1.68,0,2.53-1.81,2.53-5.42v-58.7a10.21,10.21,0,0,1,10.65-10.66,10.83,10.83,0,0,1,8,3,10.39,10.39,0,0,1,3,7.68v110.9a4.63,4.63,0,0,1-4.87,4.87,4.82,4.82,0,0,1-4-1.8L2999,1091.65q-2.72-2.72-4.52-2.71c-1.68,0-2.53,1.8-2.53,5.41v59.07a10.21,10.21,0,0,1-10.65,10.65,10.86,10.86,0,0,1-8-3,10.35,10.35,0,0,1-3-7.67v-110.9A4.72,4.72,0,0,1,2971.63,1039Z"/><path class="cls-1" d="M3068.53,1165.52a6.22,6.22,0,0,1-5.07-2.31l-65.53-70.58c-2-2-3.09-2.25-3.46-2.25-.66,0-1.08,1.56-1.08,4v59.07a11.67,11.67,0,0,1-12.1,12.1,12.3,12.3,0,0,1-9.06-3.41,11.81,11.81,0,0,1-3.4-8.69v-110.9a6.2,6.2,0,0,1,1.77-4.54h0a6.22,6.22,0,0,1,4.55-1.77,6.82,6.82,0,0,1,5,2l65.6,70.47c2,2,3.1,2.25,3.46,2.25.66,0,1.09-1.56,1.09-4v-58.7a11.64,11.64,0,0,1,12.1-12.1,12.26,12.26,0,0,1,9.05,3.4,11.82,11.82,0,0,1,3.41,8.7v110.9a6.09,6.09,0,0,1-6.32,6.32Zm-74.06-78c1.62,0,3.43,1,5.54,3.14l65.67,70.74a3.47,3.47,0,0,0,6.28-2.17V1048.3a8.94,8.94,0,0,0-2.56-6.66,9.39,9.39,0,0,0-7-2.56,8.78,8.78,0,0,0-9.22,9.22V1107c0,5.67-2.16,6.86-4,6.86-1.62,0-3.43-1-5.54-3.13l-65.6-70.48a4,4,0,0,0-2.91-1.17,3.36,3.36,0,0,0-2.5.93h0a3.32,3.32,0,0,0-.94,2.5v110.9a8.93,8.93,0,0,0,2.56,6.65,9.41,9.41,0,0,0,7,2.56,8.78,8.78,0,0,0,9.21-9.21v-59.07C2990.5,1088.68,2992.66,1087.49,2994.47,1087.49Z"/><path class="cls-1" d="M3144.2,1048.3a10.21,10.21,0,0,1,10.66-10.66,10.86,10.86,0,0,1,8,3,10.43,10.43,0,0,1,3,7.68v105.12a10.21,10.21,0,0,1-10.66,10.65,10.86,10.86,0,0,1-8-3,10.39,10.39,0,0,1-3-7.67Z"/><path class="cls-1" d="M3155.22,1165.52a12.3,12.3,0,0,1-9.06-3.41,11.85,11.85,0,0,1-3.4-8.69V1048.3a11.64,11.64,0,0,1,12.1-12.1,12.3,12.3,0,0,1,9.06,3.4,11.82,11.82,0,0,1,3.4,8.7v105.12a11.66,11.66,0,0,1-12.1,12.1Zm-.36-126.44a8.76,8.76,0,0,0-9.21,9.22v105.12a8.92,8.92,0,0,0,2.55,6.65,9.43,9.43,0,0,0,7,2.56,8.78,8.78,0,0,0,9.22-9.21V1048.3a8.94,8.94,0,0,0-2.56-6.66A9.41,9.41,0,0,0,3154.86,1039.08Z"/><path class="cls-1" d="M3299,1166.78q-16.26,0-28.45-5.69a62.23,62.23,0,0,1-20.41-14.9,60.87,60.87,0,0,1-12.28-21.13,74.18,74.18,0,0,1,0-48.41,61,61,0,0,1,12.28-21.13,62.23,62.23,0,0,1,20.41-14.9q12.2-5.68,28.45-5.69a60.31,60.31,0,0,1,14.63,1.81,64.43,64.43,0,0,1,13.91,5.24,9.14,9.14,0,0,1,5.06,6.32q.9,4.15-2.17,8.31a10.22,10.22,0,0,1-8.85,4.69,18.81,18.81,0,0,1-6.5-1.44,49.89,49.89,0,0,0-7.41-2.44,35,35,0,0,0-8.49-1q-14.27,0-23.75,6.6a41.67,41.67,0,0,0-14.18,16.43,51.19,51.19,0,0,0,0,42.81,41.77,41.77,0,0,0,14.18,16.44q9.48,6.58,23.75,6.59a45.15,45.15,0,0,0,9.12-.81,32.12,32.12,0,0,0,7-2.26,18.9,18.9,0,0,1,6.5-1.45,10.65,10.65,0,0,1,8.85,4.52,11,11,0,0,1,2.17,8.31,9.18,9.18,0,0,1-4.7,6.5,47.44,47.44,0,0,1-12.91,5.06A71.85,71.85,0,0,1,3299,1166.78Z"/><path class="cls-1" d="M3299,1168.22c-11,0-20.77-2-29.06-5.82a63.92,63.92,0,0,1-20.87-15.25,62.58,62.58,0,0,1-12.57-21.63,75.54,75.54,0,0,1,0-49.33,62.67,62.67,0,0,1,12.57-21.63,63.92,63.92,0,0,1,20.87-15.25c8.29-3.86,18.06-5.82,29.06-5.82a61.7,61.7,0,0,1,15,1.85,66.23,66.23,0,0,1,14.22,5.35,10.58,10.58,0,0,1,5.81,7.3c.69,3.18-.13,6.37-2.42,9.47a11.61,11.61,0,0,1-10,5.28,20.1,20.1,0,0,1-7-1.54,51.18,51.18,0,0,0-7.24-2.38,33.76,33.76,0,0,0-8.14-1c-9.16,0-16.88,2.13-22.93,6.33a40.49,40.49,0,0,0-13.7,15.88,49.73,49.73,0,0,0,0,41.56,40.53,40.53,0,0,0,13.7,15.87c6.05,4.21,13.76,6.34,22.93,6.34a43.83,43.83,0,0,0,8.83-.79,29.65,29.65,0,0,0,6.63-2.15l.1,0a20.42,20.42,0,0,1,7-1.54,12.06,12.06,0,0,1,10,5.09,12.44,12.44,0,0,1,2.44,9.42,10.6,10.6,0,0,1-5.38,7.5,48.77,48.77,0,0,1-13.33,5.22A72.93,72.93,0,0,1,3299,1168.22Zm0-131.85c-10.57,0-19.94,1.87-27.84,5.56a61,61,0,0,0-19.94,14.55,59.76,59.76,0,0,0-12,20.64,72.59,72.59,0,0,0,0,47.47,59.67,59.67,0,0,0,12,20.64,61.06,61.06,0,0,0,19.94,14.56c7.9,3.68,17.27,5.55,27.84,5.55a70.12,70.12,0,0,0,15.84-1.59,46.31,46.31,0,0,0,12.52-4.9,7.73,7.73,0,0,0,4-5.5,9.57,9.57,0,0,0-1.93-7.24,9.19,9.19,0,0,0-7.67-3.89,17.29,17.29,0,0,0-5.94,1.33,33.24,33.24,0,0,1-7.22,2.34,46.73,46.73,0,0,1-9.42.84c-9.77,0-18-2.3-24.57-6.85a43.29,43.29,0,0,1-14.66-17,52.53,52.53,0,0,1,0-44.05,43.29,43.29,0,0,1,14.66-17c6.54-4.54,14.8-6.85,24.57-6.85a36.49,36.49,0,0,1,8.84,1,52.75,52.75,0,0,1,7.62,2.51,17.52,17.52,0,0,0,5.94,1.33,8.75,8.75,0,0,0,7.66-4.08c1.83-2.47,2.46-4.81,1.95-7.18a7.74,7.74,0,0,0-4.32-5.35,63.54,63.54,0,0,0-13.59-5.11A59,59,0,0,0,3299,1036.37Z"/><path class="cls-1" d="M320.93,311.1v150c0,99.31-19.86,158.9-99.31,158.9H132.24V941.73a4.7,4.7,0,0,1-5,5H8.1a4.7,4.7,0,0,1-5-5V157.17a4.7,4.7,0,0,1,5-5H221.62C301.07,152.2,320.93,211.79,320.93,311.1ZM191.82,271.38H132.24V500.79h59.58Z"/><path class="cls-1" d="M489.75,609V827.52H613.89a4.69,4.69,0,0,1,5,5V941.73a4.69,4.69,0,0,1-5,5H365.61a4.7,4.7,0,0,1-5-5V157.17a4.7,4.7,0,0,1,5-5H604a4.7,4.7,0,0,1,5,5V266.41a4.7,4.7,0,0,1-5,5H489.75V489.86h94.34a4.7,4.7,0,0,1,5,5V604.07a4.7,4.7,0,0,1-5,5Z"/><path class="cls-1" d="M941.6,152.2a4.7,4.7,0,0,1,5,5V266.41a4.7,4.7,0,0,1-5,5H867.12V941.73a4.7,4.7,0,0,1-5,5H743a4.69,4.69,0,0,1-5-5V271.38H663.53a4.69,4.69,0,0,1-5-5V157.17a4.69,4.69,0,0,1,5-5Z"/><path class="cls-1" d="M1941.9,271.38h-59.59v144c0,10.92-1,29.79,19.86,39.72l79.45,39.73c60.58,29.79,89.38,65.54,89.38,146v147c0,99.31-19.86,158.9-99.31,158.9H1852.52c-79.45,0-99.32-59.59-99.32-158.9V627.91a4.7,4.7,0,0,1,5-5h119.17a4.7,4.7,0,0,1,5,5V827.52h59.59V643.8c0-10.93,1-29.8-19.87-39.73l-79.44-39.72c-60.59-29.8-89.39-65.55-89.39-146V311.1c0-99.31,19.87-158.9,99.32-158.9h119.17c79.45,0,99.31,59.59,99.31,158.9V431.27a4.68,4.68,0,0,1-5,5H1946.86a4.68,4.68,0,0,1-5-5Z"/><path class="cls-1" d="M2115.68,946.7a4.7,4.7,0,0,1-5-5V157.17a4.7,4.7,0,0,1,5-5h178.76c3,0,5,1,5,5L2328.21,470h19.86l28.8-312.83c0-4,2-5,5-5H2560.6a4.69,4.69,0,0,1,5,5V941.73a4.69,4.69,0,0,1-5,5H2441.42a4.69,4.69,0,0,1-5-5v-432h-19.87l-38.73,432c0,4-2,5-5,5h-69.52c-3,0-5-1-5-5l-38.73-432h-19.86v432a4.7,4.7,0,0,1-5,5Z"/><path class="cls-1" d="M2610.24,946.7a4.69,4.69,0,0,1-5-5V157.17a4.69,4.69,0,0,1,5-5h119.18a4.69,4.69,0,0,1,5,5V941.73a4.69,4.69,0,0,1-5,5Z"/><path class="cls-1" d="M2779.07,946.7a4.7,4.7,0,0,1-5-5V157.17a4.7,4.7,0,0,1,5-5h119.17a4.7,4.7,0,0,1,5,5V827.52h114.21a4.69,4.69,0,0,1,5,5V941.73a4.69,4.69,0,0,1-5,5Z"/><path class="cls-1" d="M3191.21,609V827.52h124.14a4.69,4.69,0,0,1,5,5V941.73a4.69,4.69,0,0,1-5,5H3067.07a4.7,4.7,0,0,1-5-5V157.17a4.7,4.7,0,0,1,5-5h238.35a4.69,4.69,0,0,1,5,5V266.41a4.69,4.69,0,0,1-5,5H3191.21V489.86h94.35a4.69,4.69,0,0,1,5,5V604.07a4.69,4.69,0,0,1-5,5Z"/><path class="cls-1" d="M1301.53,48.09A243.46,243.46,0,0,1,1405,36.58c34.75,3.53,67.72,13.36,101.53,21.45,21.38,5.12,40.53,7.47,60.34-1,1-.42,1.18-.18.6.71A89.34,89.34,0,0,1,1523.81,93a.69.69,0,0,0-.41.89.7.7,0,0,0,.42.42c33.06,11.2,66.79,24.63,100.3,31.39,19.69,4,36.59,2.85,53.54-8.48.78-.53,1-.36.64.53-10.62,26.37-33.54,45.76-59.17,56.7a2.54,2.54,0,0,0-1.19,1.06q-2.6,4.53,2.22,7.09,53.56,28.39,85.94,81.16c.78,1.29.47,1.69-.95,1.18a85.41,85.41,0,0,0-19.2-4.49,2.68,2.68,0,0,0-2.43,4.29c36.18,47,34.45,116.65-12.22,156.32-7.16,6.09-6.45,13.75-2.75,21.5,8.28,17.29,13.76,32.56,5.49,51.25-3,6.89-11.86,12.49-4.19,20.54,31.21,32.75,52.31,78.36,42,124.35-5.85,26-24.92,49-53.38,49.51a1,1,0,0,0-1.06.83c-6.14,22.82-8,48.4-37.56,48.78-2.21,0-4.76-1.26-7.32-.88a1,1,0,0,0-.83,1.13.07.07,0,0,1,0,.05c2.06,9.77,6.15,18.95,9.74,29.7,35,104.93-44.46,185.1-143.58,195.62-85.17,9-161-26.53-218.4-87.56-29.91-31.8-57.48-67.35-106.38-62.84-23.83,2.18-46.06,14.56-62.81,31.7-.49.51-.67.42-.51-.28,6.58-29.52,26-61.54,56.09-71.69a4.26,4.26,0,0,0,2.67-5.39,2.9,2.9,0,0,0-.16-.41q-1.85-4.08-7.1-3.69c-49.17,3.66-88.29,26.86-117.39,65.87-.75,1-1.05.9-.9-.34,6.21-51.55,37.16-112.21,92-125.66,4-1,6.44-2.93,4.07-7.22a2.11,2.11,0,0,0-1.12-1c-77.43-29.62-141.33,17.29-160.8,91a.72.72,0,0,1-.9.5.75.75,0,0,1-.52-.63c-3.36-57.6,22.68-114.3,75.09-141.41a3,3,0,0,0,1.21-1.19c5.61-10.36-1.13-15.36-10-20C950.38,585.85,905.59,509,920.85,427.89c8.19-43.54,33.94-73.19,71.3-95.24,7.28-4.29,16.17-25.34,19.6-33.36,2.9-6.83-1.36-11.4-8.31-9.1A142.08,142.08,0,0,0,949,322.86a.59.59,0,0,1-.82,0,.54.54,0,0,1-.11-.58c20.39-53.84,55.94-103.66,95.91-144.61a643.73,643.73,0,0,1,219.1-147.51q37.85-15.48,76.46-30c.71-.28.9-.07.54.61a147.29,147.29,0,0,1-38.94,46.71.35.35,0,0,0-.07.51A.4.4,0,0,0,1301.53,48.09Zm82.64,427.38c-24.87,18-53.7,20-81.1,30.86-88.09,34.8-96.26,129.46-69.51,207.85C1268,815,1360.68,914.79,1474.21,921c73.32,4,137.19-48.84,125.21-126.43-3.63-23.42-12.44-45.16-14.67-68.71a1,1,0,0,0-1.12-.9,1,1,0,0,0-.81.58c-8.41,18.18-3.49,37.7,1.64,59.4,16.67,70.44-54.28,95.61-109,88.66-79.46-10.12-145.3-70.75-182.19-139.26-22.74-42.21-37.62-98.26-22-146.38a1.08,1.08,0,0,1,1.36-.69l.24.11a277.49,277.49,0,0,0,93.92,37q10.65,2.1,32.81,4.62,120.69,13.77,241.56,25.91c4.65.48,13.45.88,16.5-.51,34.28-15.69,23.45-62,10-87.4-11.51-21.73-26-36.39-43.92-52.72a1.16,1.16,0,0,1-.08-1.65.74.74,0,0,1,.13-.12c23.91-19.09,33.09-53.36.71-70.59-1.07-.57-1.08-1.16,0-1.77A29.36,29.36,0,0,0,1637.87,423a63.18,63.18,0,0,1,18.38-28.56l9.41-8.38c19.76-21,23.51-50,13.55-76.53-27.36-72.85-110.58-70.78-166.27-36a.9.9,0,0,1-1.29-.18c-30.28-35.32-65.91-61.11-112.47-69.22-80.66-14-158.08,33.12-172.37,115.15-8.48,48.6,9.16,124,70.16,130.21a.67.67,0,0,1,.68.65.66.66,0,0,1-.64.68,216,216,0,0,1-53.77,1.44.66.66,0,0,0-.72.6.67.67,0,0,0,.29.61c41.86,26.93,92.41,31.75,141,21.24C1385.13,474.42,1385.25,474.67,1384.17,475.47ZM1073.47,571a.61.61,0,0,1-.54-.68.59.59,0,0,1,.34-.48c34.22-17,57.91-43.18,68-81.05.81-3.1.25-3.39-1.71-.85q-23,29.82-60.82,19.78c-.42-.11-.46-.29-.1-.53,28.6-19.3,48.6-45.73,48.32-81.05-.07-8.25-2.82-17.84-7.18-24.23-41.84-61.41-128.72-44.38-155.5,20.65-16.19,39.25-5.8,84.88,19.06,117.86,27.48,36.49,77,68.25,124.9,57.05q26.18-6.13,41.11-28c1.62-2.37,2.55-5.24.47-7.41a3,3,0,0,0-3.14-.71C1122.78,570.13,1098.85,574.46,1073.47,571Zm257.79,84c15.09,15.79,35-9.66,22.4-15q-6.57-2.76-27.63-8.41a.55.55,0,0,0-.77.48Q1322.55,645.86,1331.26,655Zm58-8.8-23.39-3.08a5.86,5.86,0,0,0-6.56,5h0l-.13,1.09a17.48,17.48,0,0,0,15,19.6l.33.05a17.48,17.48,0,0,0,19.6-15l.15-1.1a5.85,5.85,0,0,0-5-6.56Zm9.91,2.77c-19.46,30.81,35.76,52,41.44,18.29,1.1-6.51-.51-13.78-7.34-15.79q-9.21-2.68-32.94-3.13A1.24,1.24,0,0,0,1399.16,648.93Zm82.62,8.08-28.16-3.31a9.87,9.87,0,0,0-11,8.65h0l-.75,6.38a24.11,24.11,0,0,0,20.9,26.92h0l.29,0a24.09,24.09,0,0,0,26.57-21.33h0l.75-6.38a9.88,9.88,0,0,0-8.64-11Zm67.29,7-45.77-4.4a10.73,10.73,0,0,0-11.71,9.65l-.48,5c-1.59,16.54,10.79,31.27,27.66,32.89l6,.58c16.87,1.62,31.83-10.47,33.42-27l.48-5a10.72,10.72,0,0,0-9.64-11.72Zm54.29,38.32c3.43,6.62,9.38,12.77,17.05,11.08,13.09-2.87,17.13-28,19.68-39.06.13-.59-.1-.9-.68-.94q-49.2-4.5-63.59-6.33c-9.87-1.26-15.56,2.33-17,12.42-3.1,20.92,9.79,42.42,33.46,30.86,3.76-1.84,6.61-5.32,9.77-8.26C1602.58,701.58,1603,701.65,1603.36,702.32Zm-133.89,72.57c-22.52-38.35-68.67-56.07-111.71-53.52-8,.48-24.48,4.72-25.17,14.67-1.28,18.44,12.35,23.44,26.67,30.86a98.55,98.55,0,0,1,27.08,21c32.91,35.75,72.35,57,122.36,50.72,17.52-2.2,48.42-12.35,44.86-35-6.46-40.83-55.48-62.68-91.85-64-.69,0-.87.25-.55.86a82.49,82.49,0,0,1,9.46,34,.61.61,0,0,1-.57.65A.61.61,0,0,1,1469.47,774.89Z"/><path class="cls-1" d="M1400.82,313.42c-49.81-2.95-126.19,25.87-122.25,88.42.06.82-.18.91-.71.28a66.56,66.56,0,0,1-14.5-32.6c-12.88-79.82,64.7-127.84,135.09-114.29,27.39,5.28,63.32,22,78.15,46.76,5.48,9.11,10.45,26.52,4.62,36.36-8.27,13.93-21.39,2.25-29.3-4.51A84.25,84.25,0,0,0,1400.82,313.42Z"/><path class="cls-1" d="M1579.3,337.85c-36.49-2.24-67.14,13.73-79.12,49.79a.54.54,0,0,1-.7.33.57.57,0,0,1-.36-.49c0-26.62,5.45-52,24.49-71.2,27.71-28,83-33.89,116.69-13.84,16.19,9.64,26.32,22.92,26.24,42.19-.08,18.35-14,26.37-29.48,14.95C1619.3,346.45,1601.51,339.23,1579.3,337.85Z"/><path class="cls-1" d="M1425.89,346.15c-7.57-.12-15.35-1.29-25.62-.45-26.84,2.22-49.11,11.38-67.24,31.84a.64.64,0,0,1-.9.1.66.66,0,0,1-.21-.73c11.4-34.79,47.16-46,80.23-37.67a45.42,45.42,0,0,1,14,6C1427.12,345.86,1427,346.16,1425.89,346.15Z"/><path class="cls-1" d="M1362.63,401.21a2.65,2.65,0,0,1-1.83-2.72c2.81-43.88,81.82-38.48,87.29,3.85a4.05,4.05,0,0,1-2.52,4.29l-13.3,5.31a1.14,1.14,0,0,1-1.46-.58c-10.17-22.08-38.69-28.55-52.64-6.16a1.29,1.29,0,0,1-1.47.55Z"/><path class="cls-1" d="M1544.11,416.93c-4.5-.73-20-3.68-18.52-10.62,4.31-20,19.5-30.49,39.46-31.36,18.3-.77,43.25,13.67,40.9,35.55a1.55,1.55,0,0,1-.7,1.13,49.71,49.71,0,0,1-18.37,6.81.81.81,0,0,1-1.06-.83c-2.35-23.95-33.36-24.1-40.08-1.69A1.45,1.45,0,0,1,1544.11,416.93Z"/><path class="cls-1" d="M1032.46,537.88c-15.51-4.27-28.23-17.54-35.82-31.19-14.66-26.35-10.45-59.43,8.72-82,33.47-39.47,96.8-22.4,90.41,34.6a3.1,3.1,0,0,1-2,2.52c-27.43,10.38-31.92,42.3-21.77,66.39a.35.35,0,0,1-.14.5.4.4,0,0,1-.52-.15h0c-15.87-23.21-20.75-59.82,3.61-79.26a3.07,3.07,0,0,0,.49-4.3l-.27-.29c-16.14-15.47-43.17-2.52-52.69,14-14.46,25.2-6,56.14,10.57,78.25Q1034.11,538.35,1032.46,537.88Z"/><path class="cls-1" d="M1358.64,426.11c-7.57-1-15.54-.73-23.35-.65a.49.49,0,0,1-.48-.48.43.43,0,0,1,.26-.41,63.73,63.73,0,0,1,40.62-5c10,2,23.75,7.57,37.3,7.09,10.63-.36,43.9-12.57,51.37-4.9.5.53.41.92-.29,1.16-10.83,3.82-21.33,7.72-31.88,12.24a56.44,56.44,0,0,1-29,4.31C1388.14,437.82,1374.25,428.21,1358.64,426.11Z"/><path class="cls-1" d="M1574,437.77a70.93,70.93,0,0,0,24.45,8.05.62.62,0,0,1,.08,1.22c-13,3.78-22.42,3.25-35.08-2.4-9-4-16.81-8.15-27.61-9.85-23.74-3.73-49.23.34-71.1,9.77-10.3,4.45-19.67,11.63-28.83,18.75a.46.46,0,0,1-.65-.1.44.44,0,0,1-.07-.43c8.88-24.25,35.63-36.59,60.21-40.62,23.28-3.81,42.08.32,63.74,3.66a128.34,128.34,0,0,0,53-2.75c1.17-.3,1.33,0,.48.83-8.53,8.68-26.59,12.58-38.3,12.53a.71.71,0,0,0-.73.69A.73.73,0,0,0,1574,437.77Z"/><path class="cls-1" d="M1488.47,501.92c-11.44-5.81-23.87-14.36-18.12-28.59,3.66-9.08,18.31-7.07,26-3.74,21.28,9.27,40.63,30.26,32,54.89-.18.52-.51.65-1,.38C1514.1,517.46,1502.07,508.84,1488.47,501.92Z"/><path class="cls-1" d="M1459.73,502.8c-12.92,1-27.86-8.91-22.09-23.56a2.66,2.66,0,0,1,4.78-.36A125.1,125.1,0,0,0,1460,502.15C1460.38,502.55,1460.29,502.77,1459.73,502.8Z"/><path class="cls-1" d="M1592.25,483.4c8.56.33,14.48,9.28,12.87,17.11-3.79,18.47-34.7,23.29-48.68,24.93q-.95.1-1-.84C1554.88,502.17,1567.54,482.44,1592.25,483.4Z"/><rect class="cls-1" x="2.23" y="1036.27" width="1302.31" height="134.44"/><path class="cls-1" d="M1306.76,1172.93H0V1034H1306.76ZM4.46,1168.48H1302.31v-130H4.46Z"/></svg>